<?xml version="1.0" standalone="no"?>
<!DOCTYPE svg PUBLIC "-//W3C//DTD SVG 1.1//EN" "http://www.w3.org/Graphics/SVG/1.1/DTD/svg11.dtd" >
<svg xmlns="http://www.w3.org/2000/svg">
<defs>
  <font id="Material-Icons-Round" horiz-adv-x="1008">
    <font-face font-family="Material Icons" units-per-em="1008" ascent="1008" descent="0" font-style="Round"/>
    <missing-glyph horiz-adv-x="1008" d="M588 483L588 199.5L672 126L672 42L504 84L336 42L336 126L420 199.5L420 483L84 399L84 504L420 672L420 882C420 928.204116 457.79958 966 504 966C550.1999999999999 966 588 928.204116 588 882L588 672L924 504L924 399L588 483z"/>
    <glyph glyph-name="360" unicode="360" horiz-adv-x="1008" d="M504 714C272.1600000000001 714 84 619.9200000000001 84 504C84 409.92 207.48 330.5400000000001 378 303.66V218.8200000000001C378 199.9200000000001 400.68 190.68 413.7 204.12L530.88 321.3C539.28 329.7 539.28 342.7199999999999 530.88 351.12L413.7000000000001 468.3C400.6800000000001 481.3199999999999 378.0000000000001 472.0799999999999 378.0000000000001 453.1799999999999V389.3400000000001C245.7000000000001 412.86 168.0000000000001 469.14 168.0000000000001 504C168.0000000000001 548.52 295.6800000000001 630 504.0000000000001 630S840 548.52 840 504C840 476.28 789.6 433.4400000000001 700.56 405.7200000000001C683.34 400.26 672 384.3000000000001 672 366.24C672 338.1 699.3 317.5200000000001 725.76 325.9200000000001C844.62 362.88 924 428.8200000000001 924 504C924 619.9200000000001 735.84 714 504 714z"/>
    <glyph glyph-name="3d_rotation" unicode="3d_rotation" horiz-adv-x="1008" d="M353.2200000000001 379.68C345.24 379.68 337.6800000000001 380.94 331.38 383.04C324.6600000000001 385.56 319.2000000000001 388.5 314.58 393.12C309.96 397.32 306.18 402.36 303.6600000000001 408.66C301.1400000000001 414.54 299.88 421.26 299.88 428.4H245.2800000000001C245.2800000000001 413.28 248.2200000000001 399.8400000000001 254.1 388.5C259.98 377.16 267.9600000000001 367.5 277.6200000000001 359.52C287.7000000000001 351.9600000000001 299.04 346.0800000000001 312.0600000000001 342.3000000000001C324.6600000000001 338.1 338.1 336 352.38 336C367.92 336 382.6200000000001 338.1 395.64 342.3000000000001C409.08 346.5 420.84 352.8000000000001 430.5 360.78S448.14 378.8400000000001 453.6 391.02S462 416.64 462 431.76C462 439.74 461.16 447.7200000000001 459.06 455.2800000000001C456.96 462.84 454.02 469.98 449.4 476.7C445.2 483.4200000000001 439.32 489.3000000000001 432.6 494.76C425.46 500.2200000000001 417.06 504.4200000000001 406.98 507.7800000000001C415.38 511.5600000000001 422.5199999999999 516.1800000000001 428.82 521.6400000000001C435.12 527.1000000000001 440.16 532.98 444.3599999999999 539.2800000000001C448.5599999999999 545.5800000000002 451.4999999999999 551.8800000000001 453.6 558.6000000000001S456.54 572.0400000000002 456.54 578.7600000000001C456.54 593.8800000000001 454.0199999999999 607.3200000000002 448.98 619.0800000000002S436.8 640.5 427.56 648.0600000000001C419.1600000000001 656.04 407.82 661.9200000000001 395.2200000000001 666.1200000000001C382.2 669.9 367.92 672 352.38 672C337.2600000000001 672 323.4000000000001 669.9 310.38 665.28C297.7800000000001 660.6600000000001 286.44 654.36 277.2000000000001 646.38C268.38 638.4000000000001 261.24 629.1600000000001 255.7800000000001 618.24C250.7400000000001 607.32 248.2200000000001 595.56 248.2200000000001 582.54H302.8200000000001C302.8200000000001 589.6800000000001 304.0800000000001 595.98 306.6 601.44S312.48 611.94 317.1 615.72S326.7600000000001 622.86 333.06 624.96S345.6600000000001 628.32 353.2200000000001 628.32C370.0200000000001 628.32 382.62 624.1200000000001 390.6 615.3C398.58 606.9000000000001 402.78 594.72 402.78 579.1800000000001C402.78 571.6200000000001 401.5200000000001 564.9000000000001 399.42 558.6S393.54 547.26 388.92 543.0600000000001C384.3 538.8600000000001 378.42 535.5 371.7 532.98C364.98 530.46 356.58 529.2 347.34 529.2H315V485.9400000000001H347.34C356.58 485.9400000000001 364.98 485.1000000000001 372.54 483.0000000000001S386.4 477.5400000000001 391.44 473.34C396.4799999999999 468.72 400.68 463.26 403.6199999999999 456.5400000000001S407.8199999999999 441.8400000000001 407.8199999999999 432.6C407.8199999999999 415.38 402.7799999999999 402.36 393.1199999999999 393.5400000000001C383.4599999999999 383.88 370.0199999999999 379.6800000000001 353.2199999999999 379.6800000000001zM743.82 577.9199999999998C736.26 597.66 725.76 614.4599999999998 712.32 628.3199999999999C698.88 642.1799999999998 682.9200000000001 653.0999999999999 664.44 660.6599999999999C646.38 668.2199999999998 625.8000000000001 671.9999999999998 603.12 671.9999999999998H504V335.9999999999999H600.6C623.7 335.9999999999999 645.12 339.7799999999999 664.02 347.3399999999998S699.3000000000001 365.3999999999999 712.74 379.2599999999999C726.18 393.1199999999998 736.68 409.9199999999999 743.8199999999999 429.2399999999998C750.9599999999999 448.9799999999998 754.74 470.8199999999998 754.74 495.1799999999998V511.9799999999998C754.74 536.3399999999998 750.9599999999999 558.1799999999998 743.8199999999999 577.9199999999998zM696.3600000000001 495.5999999999999C696.3600000000001 477.9599999999999 694.26 462.42 690.48 448.1399999999999C686.28 434.28 680.4000000000001 422.0999999999999 672.4200000000001 412.44S654.3600000000001 395.2199999999999 642.6 390.18C630.4200000000001 385.14 616.5600000000001 382.62 601.02 382.62H562.8000000000001V625.38H603.5400000000001C633.7800000000001 625.38 656.88 615.72 672.4200000000001 596.4000000000001C688.38 577.0799999999999 696.3600000000001 549.3600000000001 696.3600000000001 512.82V495.6zM636.3000000000001 846.7199999999998L692.1600000000002 902.5799999999998C821.9400000000002 841.2599999999999 916.4400000000002 719.0399999999998 939.5400000000002 572.4599999999998C942.0600000000002 555.2399999999998 958.0200000000002 543.4799999999998 975.6600000000002 546.4199999999998C992.8800000000002 548.9399999999998 1004.6400000000002 565.3199999999998 1001.7000000000002 582.5399999999997C976.5000000000002 742.5599999999998 877.3800000000002 876.9599999999998 739.6200000000002 950.0399999999998C669.48 987.42 578.76 1013.46 476.28 1007.16L636.3000000000001 846.72zM371.7000000000001 161.6999999999999L315.8400000000001 105.8399999999998C186.0600000000001 167.1599999999999 91.5600000000001 289.3799999999999 68.4600000000001 435.9599999999998C65.9400000000001 453.1799999999998 49.9800000000001 464.9399999999998 32.3400000000001 461.9999999999998C15.1200000000001 459.4799999999998 3.3600000000001 443.0999999999998 6.3000000000001 425.8799999999998C31.5000000000001 265.8599999999998 130.6200000000001 131.4599999999998 268.3800000000001 58.3799999999998C338.5200000000001 20.9999999999997 429.2400000000001 -5.0400000000003 531.72 1.2599999999998L371.7000000000001 161.6999999999998z"/>
    <glyph glyph-name="4k" unicode="4k" horiz-adv-x="1008" d="M798 882H210C163.8 882 126 844.2 126 798V210C126 163.8 163.38 126 210 126H798C844.2 126 882 163.8 882 210V798C882 844.2 844.62 882 798 882zM504 472.08C504 454.86 489.72 440.5800000000001 472.5 440.5800000000001H462V409.5C462 392.28 447.7200000000001 378 430.5 378S399 392.28 399 409.5V441H315C291.9000000000001 441 273 459.9 273 483V598.5C273 615.72 287.28 630 304.5 630S336 615.72 336 598.5V504H399V598.5C399 615.72 413.28 630 430.5 630S462 615.72 462 598.5V504H472.5C489.72 504 504 489.72 504 472.5V472.08zM733.74 424.2C742.9799999999999 410.3400000000001 739.1999999999999 391.86 725.34 383.04C720.3 379.68 714.42 378 708.9599999999999 378C699.3 378 690.06 382.62 684.18 391.4400000000001L609 504V409.92C609 392.7 594.72 378.42 577.5 378.42C560.28 378 546 392.28 546 409.5V598.5C546 615.72 560.28 630 577.5 630S609 615.72 609 598.5V504.42L684.18 616.98C693.42 630.8399999999999 711.9 634.2 725.34 625.3799999999999C739.1999999999999 616.1399999999999 742.56 597.66 733.74 584.2199999999999L680.4 504L733.74 424.2z"/>
    <glyph glyph-name="ac_unit" unicode="ac_unit" horiz-adv-x="1008" d="M882 546H748.8599999999999L855.5399999999998 652.68C871.92 669.06 871.92 695.52 855.5399999999998 711.9C839.1599999999999 728.28 812.2799999999999 728.28 795.8999999999999 711.9L630 546H546V630L711.9 795.9C728.28 812.28 728.28 839.1600000000001 711.9 855.54C695.52 871.9200000000001 669.06 871.9200000000001 652.68 855.54L546 748.86V882C546 905.1 527.1 924 504 924S462 905.1 462 882V748.86L355.3200000000001 855.54C338.94 871.9200000000001 312.4800000000001 871.9200000000001 296.1 855.54C279.7200000000001 839.1600000000001 279.7200000000001 812.28 296.1 795.9L462 630V546H378L212.1 711.9000000000001C195.72 728.28 168.84 728.28 152.46 711.9000000000001C136.08 695.52 136.08 669.06 152.46 652.6800000000001L259.14 546H126C102.9 546 84 527.1 84 504S102.9 462 126 462H259.14L152.46 355.3200000000001C136.08 338.9400000000001 136.08 312.48 152.46 296.1C168.84 279.7200000000001 195.72 279.7200000000001 212.1 296.1L378 462H462V378L296.1 212.1C279.7200000000001 195.72 279.7200000000001 168.84 296.1 152.4600000000002C312.48 136.0800000000001 338.94 136.0800000000001 355.32 152.4600000000002L462 259.1400000000001V126C462 102.9 480.9 84 504 84S546 102.9 546 126V259.1400000000001L652.68 152.4600000000002C669.06 136.0800000000001 695.52 136.0800000000001 711.9 152.4600000000002C728.28 168.8400000000002 728.28 195.7200000000002 711.9 212.1000000000001L546 378V462H630L795.9 296.1C812.28 279.7200000000001 839.16 279.7200000000001 855.5399999999998 296.1C871.92 312.48 871.92 338.9400000000001 855.5399999999998 355.3200000000001L748.8599999999999 462H882C905.1 462 924 480.9 924 504S905.1 546 882 546z"/>
    <glyph glyph-name="access_alarm" unicode="access_alarm" horiz-adv-x="1008" d="M666.54 367.5L525 451.5V641.76C525 658.56 511.56 672 494.76 672H492.24C475.4399999999999 672 461.9999999999999 658.56 461.9999999999999 641.76V443.52C461.9999999999999 428.82 469.5599999999999 414.9599999999999 482.5799999999999 407.4L635.88 315.42C650.16 307.02 668.6399999999999 311.2199999999998 677.0399999999998 325.4999999999999C685.8599999999999 340.1999999999998 681.24 359.0999999999999 666.5399999999998 367.4999999999999zM889.56 797.58L760.2 905.1C742.56 919.8 716.1 917.7 700.98 899.64C686.28 882 688.8000000000001 855.54 706.44 840.42L835.38 732.9C853.0200000000001 718.2 879.48 720.3 894.6 738.3599999999999C909.72 756 907.2 782.4599999999999 889.56 797.5799999999999zM172.2 732.9000000000001L301.14 840.4200000000001C319.2 855.54 321.7200000000001 882 306.6 899.64C291.9000000000001 917.7 265.44 919.8 247.8 905.1L118.44 797.58C100.8 782.46 98.28 756 113.4 738.36C128.1 720.3 154.56 718.2 172.2 732.9000000000001zM504 840C295.26 840 126 670.74 126 462S295.26 84 504 84S882 253.26 882 462S712.74 840 504 840zM504 168C341.88 168 210 299.88 210 462S341.88 756 504 756S798 624.12 798 462S666.12 168 504 168z"/>
    <glyph glyph-name="access_alarms" unicode="access_alarms" horiz-adv-x="1008" d="M666.54 367.5L525 451.5V641.76C525 658.56 511.56 672 494.76 672H492.24C475.4399999999999 672 461.9999999999999 658.56 461.9999999999999 641.76V443.52C461.9999999999999 428.82 469.5599999999999 414.9599999999999 482.5799999999999 407.4L635.88 315.42C650.16 307.02 668.6399999999999 311.2199999999998 677.0399999999998 325.4999999999999C685.8599999999999 340.1999999999998 681.24 359.0999999999999 666.5399999999998 367.4999999999999zM889.56 797.58L760.2 905.1C742.56 919.8 716.1 917.7 700.98 899.64C686.28 882 688.8000000000001 855.54 706.44 840.42L835.38 732.9C853.0200000000001 718.2 879.48 720.3 894.6 738.3599999999999C909.72 756 907.2 782.4599999999999 889.56 797.5799999999999zM172.2 732.9000000000001L301.14 840.4200000000001C319.2 855.54 321.7200000000001 882 306.6 899.64C291.9000000000001 917.7 265.44 919.8 247.8 905.1L118.44 797.58C100.8 782.46 98.28 756 113.4 738.36C128.1 720.3 154.56 718.2 172.2 732.9000000000001zM504 840C295.26 840 126 670.74 126 462S295.26 84 504 84S882 253.26 882 462S712.74 840 504 840zM504 168C341.88 168 210 299.88 210 462S341.88 756 504 756S798 624.12 798 462S666.12 168 504 168z"/>
    <glyph glyph-name="access_time" unicode="access_time" horiz-adv-x="1008" d="M503.58 924C271.74 924 84 735.8399999999999 84 504S271.74 84 503.58 84C735.84 84 924 272.16 924 504S735.84 924 503.58 924zM504 168C318.36 168 168 318.3599999999999 168 504S318.36 840 504 840S840 689.64 840 504S689.6400000000001 168 504 168zM494.76 714H492.24C475.4399999999999 714 461.9999999999999 700.56 461.9999999999999 683.76V485.52C461.9999999999999 470.8200000000001 469.5599999999999 456.96 482.5799999999999 449.4000000000001L656.88 344.8200000000001C671.16 336.4200000000001 689.6399999999999 340.62 698.0399999999998 354.9000000000001C706.8599999999999 369.1800000000001 702.24 388.0800000000001 687.5399999999998 396.48L524.9999999999999 493.08V683.76C524.9999999999999 700.56 511.5599999999998 714 494.7599999999998 714z"/>
    <glyph glyph-name="accessibility" unicode="accessibility" horiz-adv-x="1008" d="M504 924C550.1999999999999 924 588 886.2 588 840S550.1999999999999 756 504 756S420 793.8 420 840S457.8 924 504 924zM840 630H630V126C630 102.9 611.1 84 588 84S546 102.9 546 126V336H462V126C462 102.9 443.1 84 420 84S378 102.9 378 126V630H168C144.9 630 126 648.9 126 672S144.9 714 168 714H840C863.1 714 882 695.0999999999999 882 672S863.1 630 840 630z"/>
    <glyph glyph-name="accessibility_new" unicode="accessibility_new" horiz-adv-x="1008" d="M871.5 714.4200000000001C865.62 737.52 842.52 750.96 819.4200000000001 745.9200000000001C719.4600000000002 723.66 608.16 714 504.0000000000001 714S288.5400000000001 723.6600000000001 188.5800000000001 745.9200000000001C165.4800000000001 750.96 142.3800000000001 737.52 136.5000000000001 714.4200000000001C130.6200000000001 690.9 144.9000000000001 666.96 168.0000000000001 661.5C235.6200000000001 646.38 308.7000000000001 635.88 378.0000000000001 630V126C378.0000000000001 102.9 396.9000000000001 84 420.0000000000001 84S462.0000000000001 102.9 462.0000000000001 126V336H546.0000000000001V126C546.0000000000001 102.9 564.9000000000001 84 588.0000000000001 84S630.0000000000001 102.9 630.0000000000001 126V630C699.3000000000001 635.88 772.38 646.38 839.58 661.5C863.1 666.96 877.38 690.9000000000001 871.5000000000001 714.4200000000001zM504 756C550.1999999999999 756 588 793.8 588 840S550.1999999999999 924 504 924S420 886.2 420 840S457.8 756 504 756z"/>
    <glyph glyph-name="accessible" unicode="accessible" horiz-adv-x="1008" d="M420 840A84 84 0 0 1 588 840A84 84 0 0 1 420 840M798 508.2C798 528.78 782.88 545.5799999999999 762.72 548.94C710.22 557.76 660.66 585.9000000000001 627.06 622.86L572.88 682.9200000000001C565.74 690.9000000000001 556.92 697.2 547.26 701.8199999999999C546.84 701.8199999999999 546.84 702.24 546.4200000000001 702.24H546C530.46 711.06 513.24 715.26 493.5 712.74C450.66 707.7 420 669.06 420 625.8V378C420 331.8 457.8 294 504 294H714V126C714 102.9 732.9 84 756 84S798 102.9 798 126V315C798 361.2 760.2 399 714 399H588V543.9C630 509.04 688.8 479.22 747.6 467.4599999999999C773.6400000000001 461.9999999999999 798 481.74 798 508.2zM538.86 252C521.64 203.28 475.02 168 420 168C350.28 168 294 224.28 294 294C294 349.02 329.28 395.2200000000001 378 412.86V499.8C282.24 480.48 210 395.64 210 294C210 178.0800000000001 304.08 84 420 84C521.64 84 606.48 156.24 625.8000000000001 252H538.86z"/>
    <glyph glyph-name="accessible_forward" unicode="accessible_forward" horiz-adv-x="1008" d="M672 817.3199999999999A84 84 0 0 1 840 817.3199999999999A84 84 0 0 1 672 817.3199999999999M630 294H546C546 224.7000000000001 489.3 168 420 168S294 224.7000000000001 294 294S350.7 420 420 420V504C304.08 504 210 409.92 210 294S304.08 84 420 84S630 178.0800000000001 630 294zM756 441H677.88L748.0200000000001 595.14C773.6400000000001 651 732.48 714 670.32 714H451.9200000000001C417.9000000000001 714 387.2400000000001 694.26 373.38 663.6L361.6200000000001 631.6800000000001C352.8 608.1600000000001 366.24 582.54 390.1800000000001 575.82C410.7600000000001 569.94 432.1800000000001 580.44 440.58 600.1800000000001L453.1800000000001 630H546L469.14 457.8000000000001C443.94 401.9400000000001 485.52 336 546.84 336H756V168C756 144.9 774.9 126 798 126S840 144.9 840 168V357C840 403.2 802.2 441 756 441z"/>
    <glyph glyph-name="account_balance" unicode="account_balance" horiz-adv-x="1008" d="M168 525V357C168 322.1400000000001 196.14 294 231 294S294 322.1400000000001 294 357V525C294 559.86 265.86 588 231 588S168 559.86 168 525zM420 525V357C420 322.1400000000001 448.14 294 483 294S546 322.1400000000001 546 357V525C546 559.86 517.86 588 483 588S420 559.86 420 525zM147 84H819C853.8599999999999 84 882 112.1400000000001 882 147S853.8599999999999 210 819 210H147C112.14 210 84 181.8599999999999 84 147S112.14 84 147 84zM672 525V357C672 322.1400000000001 700.1400000000001 294 735 294S798 322.1400000000001 798 357V525C798 559.86 769.8599999999999 588 735 588S672 559.86 672 525zM443.94 945.42L112.14 770.7C94.92 761.88 84 743.8199999999999 84 724.5C84 695.52 107.52 672 136.5 672H829.9200000000001C858.48 672 882 695.52 882 724.5C882 743.8199999999999 871.0799999999999 761.88 853.8599999999999 770.7L522.06 945.42C497.6999999999999 958.44 468.3 958.44 443.94 945.42z"/>
    <glyph glyph-name="account_balance_wallet" unicode="account_balance_wallet" horiz-adv-x="1008" d="M420 336V672C420 718.2 457.38 756 504 756H882V798C882 844.2 844.2 882 798 882H210C163.38 882 126 844.2 126 798V210C126 163.8 163.38 126 210 126H798C844.2 126 882 163.8 882 210V252H504C457.38 252 420 289.8 420 336zM546 672C522.9 672 504 653.1 504 630V378C504 354.9 522.9 336 546 336H924V672H546zM672 441C637.14 441 609 469.14 609 504S637.14 567 672 567S735 538.86 735 504S706.8599999999999 441 672 441z"/>
    <glyph glyph-name="account_box" unicode="account_box" horiz-adv-x="1008" d="M126 798V210C126 163.8 163.38 126 210 126H798C844.2 126 882 163.8 882 210V798C882 844.2 844.2 882 798 882H210C163.38 882 126 844.2 126 798zM630 630C630 560.28 573.72 504 504 504S378 560.28 378 630S434.28 756 504 756S630 699.72 630 630zM252 294C252 378 420 424.2 504 424.2S756 378 756 294V252H252V294z"/>
    <glyph glyph-name="account_circle" unicode="account_circle" horiz-adv-x="1008" d="M504 924C272.1600000000001 924 84 735.8399999999999 84 504S272.1600000000001 84 504 84S924 272.16 924 504S735.84 924 504 924zM504 798C573.72 798 630 741.72 630 672S573.72 546 504 546S378 602.28 378 672S434.28 798 504 798zM504 201.6C399 201.6 306.18 255.3600000000002 252 336.8400000000001C253.26 420.4200000000001 420 466.2 504 466.2C587.58 466.2 754.74 420.4200000000001 756 336.8400000000001C701.82 255.3600000000002 609 201.6 504 201.6z"/>
    <glyph glyph-name="adb" unicode="adb" horiz-adv-x="1008" d="M210 336C210 173.4599999999999 341.46 42 504 42S798 173.4599999999999 798 336V504H210V336zM677.0400000000001 824.46L765.2400000000001 912.66L730.8000000000001 947.52L634.2 850.5C594.72 870.24 551.04 882 504 882S413.28 870.24 374.2200000000001 850.5L277.2 947.52L242.76 912.66L330.96 824.46C257.88 771.12 210 685.44 210 588V546H798V588C798 685.44 750.12 771.12 677.0400000000001 824.46zM378 630C354.9 630 336 648.9 336 672S354.9 714 378 714S420 695.0999999999999 420 672S401.1 630 378 630zM630 630C606.9 630 588 648.9 588 672S606.9 714 630 714S672 695.0999999999999 672 672S653.1 630 630 630z"/>
    <glyph glyph-name="add" unicode="add" horiz-adv-x="1008" d="M756 462H546V252C546 228.9 527.1 210 504 210S462 228.9 462 252V462H252C228.9 462 210 480.9 210 504S228.9 546 252 546H462V756C462 779.1 480.9 798 504 798S546 779.1 546 756V546H756C779.1 546 798 527.1 798 504S779.1 462 756 462z"/>
    <glyph glyph-name="add_a_photo" unicode="add_a_photo" horiz-adv-x="1008" d="M126 672C126 648.9 144.9 630 168 630S210 648.9 210 672V756H294C317.1 756 336 774.9 336 798S317.1 840 294 840H210V924C210 947.1 191.1 966 168 966S126 947.1 126 924V840H42C18.9 840 0 821.1 0 798S18.9 756 42 756H126V672zM420 420A126.00000000000001 126.00000000000001 0 0 1 672 420A126.00000000000001 126.00000000000001 0 0 1 420 420M882 756H748.8599999999999L696.78 812.7C681.24 829.92 658.56 840 635.04 840H366.24C373.38 827.4 378 813.54 378 798C378 751.8 340.2 714 294 714H252V672C252 625.8 214.2 588 168 588C152.46 588 138.6 592.62 126 599.76V168C126 121.8 163.8 84 210 84H882C928.2 84 966 121.8 966 168V672C966 718.2 928.2 756 882 756zM546 210C430.08 210 336 304.0800000000001 336 420S430.08 630 546 630S756 535.9200000000001 756 420S661.92 210 546 210z"/>
    <glyph glyph-name="add_alarm" unicode="add_alarm" horiz-adv-x="1008" d="M630 504H546V588C546 611.1 527.1 630 504 630S462 611.1 462 588V504H378C354.9 504 336 485.1 336 462S354.9 420 378 420H462V336C462 312.9 480.9 294 504 294S546 312.9 546 336V420H630C653.1 420 672 438.9 672 462S653.1 504 630 504zM889.56 797.58L760.2 905.1C742.56 919.8 716.1 917.7 700.98 899.64C686.28 882 688.8000000000001 855.54 706.44 840.42L835.38 732.9C853.0200000000001 718.2 879.48 720.3 894.6 738.3599999999999C909.72 756 907.2 782.4599999999999 889.56 797.5799999999999zM172.2 732.9000000000001L301.14 840.4200000000001C319.2 855.54 321.7200000000001 882 306.6 899.64C291.9000000000001 917.7 265.44 919.8 247.8 905.1L118.44 797.58C100.8 782.46 98.28 756 113.4 738.36C128.1 720.3 154.56 718.2 172.2 732.9000000000001zM504 840C295.26 840 126 670.74 126 462S295.26 84 504 84S882 253.26 882 462S712.74 840 504 840zM504 168C341.88 168 210 299.88 210 462S341.88 756 504 756S798 624.12 798 462S666.12 168 504 168z"/>
    <glyph glyph-name="add_alert" unicode="add_alert" horiz-adv-x="1008" d="M504 42C550.1999999999999 42 587.58 79.38 587.58 125.5799999999999H420.42C420.42 79.3799999999999 457.8 42 504 42zM798 294V546C798 686.7 698.88 804.3 567 832.86V882C567 916.86 538.86 945 504 945S441 916.86 441 882V832.86C309.12 804.3 210 686.7 210 546V294L155.82 239.8200000000001C129.36 213.3600000000001 147.84 168 185.22 168H822.3599999999999C859.74 168 878.6399999999999 213.3599999999999 852.18 239.8200000000001L798 294zM630 461.58H546V377.5800000000001C546 354.48 527.1 335.5800000000001 504 335.5800000000001S462 354.48 462 377.5800000000001V461.58H378C354.9 461.58 336 480.48 336 503.5800000000001V504C336 527.1 354.9 546 378 546H462V630C462 653.1 480.9 672 504 672S546 653.1 546 630V546H630C653.1 546 672 527.1 672 504V503.58C672 480.48 653.1 461.58 630 461.58z"/>
    <glyph glyph-name="add_box" unicode="add_box" horiz-adv-x="1008" d="M798 882H210C163.38 882 126 844.2 126 798V210C126 163.8 163.38 126 210 126H798C844.2 126 882 163.8 882 210V798C882 844.2 844.2 882 798 882zM672 462H546V336C546 312.9 527.1 294 504 294S462 312.9 462 336V462H336C312.9000000000001 462 294 480.9 294 504S312.9000000000001 546 336 546H462V672C462 695.0999999999999 480.9 714 504 714S546 695.0999999999999 546 672V546H672C695.1 546 714 527.1 714 504S695.1 462 672 462z"/>
    <glyph glyph-name="add_circle" unicode="add_circle" horiz-adv-x="1008" d="M504 924C272.1600000000001 924 84 735.8399999999999 84 504S272.1600000000001 84 504 84S924 272.16 924 504S735.84 924 504 924zM672 462H546V336C546 312.9 527.1 294 504 294S462 312.9 462 336V462H336C312.9000000000001 462 294 480.9 294 504S312.9000000000001 546 336 546H462V672C462 695.0999999999999 480.9 714 504 714S546 695.0999999999999 546 672V546H672C695.1 546 714 527.1 714 504S695.1 462 672 462z"/>
    <glyph glyph-name="add_circle_outline" unicode="add_circle_outline" horiz-adv-x="1008" d="M504 714C480.9 714 462 695.0999999999999 462 672V546H336C312.9000000000001 546 294 527.1 294 504S312.9000000000001 462 336 462H462V336C462 312.9 480.9 294 504 294S546 312.9 546 336V462H672C695.1 462 714 480.9 714 504S695.1 546 672 546H546V672C546 695.0999999999999 527.1 714 504 714zM504 924C272.1600000000001 924 84 735.8399999999999 84 504S272.1600000000001 84 504 84S924 272.16 924 504S735.84 924 504 924zM504 168C318.78 168 168 318.78 168 504S318.78 840 504 840S840 689.22 840 504S689.22 168 504 168z"/>
    <glyph glyph-name="add_comment" unicode="add_comment" horiz-adv-x="1008" d="M924 840C924 886.2 886.2 924 840 924H168C121.8 924 84 886.2 84 840V336C84 289.8 121.8 252 168 252H756L924 84V840zM672 546H546V420C546 396.9 527.1 378 504 378S462 396.9 462 420V546H336C312.9000000000001 546 294 564.9 294 588S312.9000000000001 630 336 630H462V756C462 779.1 480.9 798 504 798S546 779.1 546 756V630H672C695.1 630 714 611.1 714 588S695.1 546 672 546z"/>
    <glyph glyph-name="add_location" unicode="add_location" horiz-adv-x="1008" d="M504 924C341.88 924 210 792.12 210 630C210 454.86 395.64 213.3599999999999 472.08 121.38C488.88 101.22 519.5400000000001 101.22 536.34 121.38C612.36 213.3599999999999 798 454.86 798 630C798 792.12 666.12 924 504 924zM630 588H546V504C546 480.9 527.1 462 504 462S462 480.9 462 504V588H378C354.9 588 336 606.9 336 630S354.9 672 378 672H462V756C462 779.1 480.9 798 504 798S546 779.1 546 756V672H630C653.1 672 672 653.1 672 630S653.1 588 630 588z"/>
    <glyph glyph-name="add_photo_alternate" unicode="add_photo_alternate" horiz-adv-x="1008" d="M882.84 798H798V882.84C798 905.52 779.52 924 756.84 924H755.5799999999999C732.4799999999999 924 714 905.52 714 882.84V798H629.58C606.9 798 588.42 779.52 588 756.8399999999999V755.5799999999999C588 732.48 606.48 714 629.58 714H714V629.5799999999999C714 606.9 732.48 588 755.5799999999999 588.4199999999998H756.84C779.52 588.4199999999998 798 606.8999999999999 798 629.5799999999999V714H882.84C905.52 714 924 732.48 924 755.1600000000001V756.84C924 779.52 905.52 798 882.84 798zM672 629.5799999999999V672H629.58C607.32 672 586.32 680.8199999999999 570.36 696.36C554.82 712.3199999999999 546 733.3199999999999 546 756.8399999999999C546 771.96 550.1999999999999 785.8199999999999 557.34 798H210C163.8 798 126 760.2 126 714V210C126 163.8 163.8 126 210 126H714C760.2 126 798 163.8 798 210V557.76C785.4 550.62 771.12 546 755.16 546C709.38 546.4200000000001 672 583.8 672 629.5799999999999zM670.32 210H252C234.78 210 224.7 229.74 235.2 243.6L318.36 354.06C327.18 365.82 344.4 364.98 352.8 353.2200000000001L420 252L529.62 398.16C538.02 409.0800000000001 554.4 409.5 562.8 398.5800000000001L686.6999999999999 244.02C697.62 230.16 687.9599999999999 210 670.3199999999999 210z"/>
    <glyph glyph-name="add_shopping_cart" unicode="add_shopping_cart" horiz-adv-x="1008" d="M504 630C527.1 630 546 648.9 546 672V756H630C653.1 756 672 774.9 672 798S653.1 840 630 840H546V924C546 947.1 527.1 966 504 966S462 947.1 462 924V840H378C354.9 840 336 821.1 336 798S354.9 756 378 756H462V672C462 648.9 480.9 630 504 630zM294 252C247.8 252 210.42 214.2000000000001 210.42 168S247.8 84 294 84S378 121.8 378 168S340.2 252 294 252zM714 252C667.8000000000001 252 630.42 214.2000000000001 630.42 168S667.8000000000001 84 714 84S798 121.8 798 168S760.2 252 714 252zM340.2 462H653.1C684.6 462 712.32 479.22 726.6 505.26L868.56 762.72C879.9 782.8799999999999 872.34 808.5 852.18 819.8399999999999C832.02 830.76 806.4 823.62 795.4799999999999 803.46L653.1 546H358.26L190.68 900.06C183.96 914.76 168.84 924 152.88 924H84C60.9 924 42 905.1 42 882S60.9 840 84 840H126L277.2 521.22L220.5 418.74C189.84 362.4600000000001 230.1600000000001 294 294 294H756C779.1 294 798 312.9 798 336S779.1 378 756 378H294L340.2 462z"/>
    <glyph glyph-name="add_to_home_screen" unicode="add_to_home_screen" horiz-adv-x="1008" d="M756 965.58L336 966C289.8 966 252 928.2 252 882V756C252 732.9000000000001 270.9000000000001 714 294 714S336 732.9000000000001 336 756V798H756V210H336V252C336 275.1 317.1 294 294 294S252 275.1 252 252V126C252 79.8 289.8 42 336 42H756C802.2 42 840 79.8 840 126V882C840 928.2 802.2 965.58 756 965.58zM462 378C485.1 378 504 396.9 504 420V630C504 653.1 485.1 672 462 672H252C228.9 672 210 653.1 210 630S228.9 588 252 588H360.78L155.4 382.62C139.02 366.24 139.02 339.78 155.4 323.4C171.78 307.02 198.2400000000001 307.02 214.62 323.4L420 528.78V420C420 396.9 438.9 378 462 378z"/>
    <glyph glyph-name="add_to_photos" unicode="add_to_photos" horiz-adv-x="1008" d="M126 756C102.9 756 84 737.0999999999999 84 714V168C84 121.8 121.8 84 168 84H714C737.1 84 756 102.9 756 126S737.1 168 714 168H210C186.9 168 168 186.9 168 210V714C168 737.0999999999999 149.1 756 126 756zM840 924H336C289.8 924 252 886.2 252 840V336C252 289.8 289.8 252 336 252H840C886.2 252 924 289.8 924 336V840C924 886.2 886.2 924 840 924zM756 546H630V420C630 396.9 611.1 378 588 378S546 396.9 546 420V546H420C396.9 546 378 564.9 378 588S396.9 630 420 630H546V756C546 779.1 564.9 798 588 798S630 779.1 630 756V630H756C779.1 630 798 611.1 798 588S779.1 546 756 546z"/>
    <glyph glyph-name="add_to_queue" unicode="add_to_queue" horiz-adv-x="1008" d="M882 882H126C79.8 882 42 844.2 42 798V294C42 247.8 79.8 210 126 210H336V168C336 144.9 354.9 126 378 126H630C653.1 126 672 144.9 672 168V210H882C928.2 210 966 247.8 966 294V798C966 844.62 928.2 882 882 882zM840 294H168C144.9 294 126 312.9 126 336V756C126 779.1 144.9 798 168 798H840C863.1 798 882 779.1 882 756V336C882 312.9 863.1 294 840 294zM672 546C672 522.9 653.1 504 630 504H546V420C546 396.9 527.1 378 504 378S462 396.9 462 420V504H378C354.9 504 336 522.9 336 546S354.9 588 378 588H462V672C462 695.0999999999999 480.9 714 504 714S546 695.0999999999999 546 672V588H630C653.1 588 672 569.1 672 546z"/>
    <glyph glyph-name="adjust" unicode="adjust" horiz-adv-x="1008" d="M504 924C272.58 924 84 735.4200000000001 84 504S272.58 84 504 84S924 272.5800000000001 924 504S735.4200000000001 924 504 924zM504 168C318.78 168 168 318.78 168 504S318.78 840 504 840S840 689.22 840 504S689.22 168 504 168zM630 504C630 434.28 573.72 378 504 378S378 434.28 378 504S434.28 630 504 630S630 573.72 630 504z"/>
    <glyph glyph-name="airline_seat_flat" unicode="airline_seat_flat" horiz-adv-x="1008" d="M924 546V462H378V630C378 676.2 415.8 714 462 714H756C848.82 714 924 638.82 924 546zM84 378C84 354.9 102.9 336 126 336H336V294C336 270.9 354.9 252 378 252H630C653.1 252 672 270.9 672 294V336H882C905.1 336 924 354.9 924 378S905.1 420 882 420H126C102.9 420 84 401.1 84 378zM299.88 499.8C348.6 549.78 347.76 629.1600000000001 298.2 677.88C248.22 726.6 168.84 725.76 120.12 676.2C71.4 626.22 72.24 546.8399999999999 121.8 498.12C171.78 449.4 251.16 450.24 299.88 499.8z"/>
    <glyph glyph-name="airline_seat_flat_angled" unicode="airline_seat_flat_angled" horiz-adv-x="1008" d="M934.5 407.8200000000001L905.52 328.4400000000001L386.4 516.18L444.78 675.3599999999999C460.74 718.62 508.62 740.8799999999999 552.3000000000001 725.3399999999999L833.28 624.12C921.48 592.2 966.84 495.5999999999999 934.5 407.82zM102.9 483.84L336 399.8400000000001V252C336 228.9 354.9 210 378 210H630C653.1 210 672 228.9 672 252V278.4599999999999L822.3599999999999 224.28C844.1999999999999 216.3 868.56 227.6399999999999 876.5399999999998 249.48C884.52 271.3200000000001 873.18 295.6800000000001 851.3399999999998 303.66L131.46 563.22C109.62 571.2 85.26 559.86 77.28 538.02C69.72 516.1800000000001 81.06 491.8200000000001 102.9 483.84zM306.6 579.6C369.18 609.84 395.64 685.02 365.82 747.6C335.58 810.1800000000001 260.4000000000001 836.64 197.4 806.4C134.82 776.58 108.36 701.4000000000001 138.6 638.4C168.42 575.8199999999999 243.6 549.3599999999999 306.6 579.5999999999999z"/>
    <glyph glyph-name="airline_seat_individual_suite" unicode="airline_seat_individual_suite" horiz-adv-x="1008" d="M294 462C363.3 462 420 518.7 420 588S363.3 714 294 714S168 657.3 168 588S224.7 462 294 462zM798 714H546C499.8 714 462 676.2 462 630V420H126V672C126 695.0999999999999 107.1 714 84 714S42 695.0999999999999 42 672V378C42 331.8 79.8 294 126 294H882C928.2 294 966 331.8 966 378V546C966 638.82 890.82 714 798 714z"/>
    <glyph glyph-name="airline_seat_legroom_extra" unicode="airline_seat_legroom_extra" horiz-adv-x="1008" d="M168 504V840C168 863.1 149.1 882 126 882S84 863.1 84 840V504C84 388.0800000000001 178.08 294 294 294H504C527.1 294 546 312.9 546 336S527.1 378 504 378H294C224.28 378 168 434.28 168 504zM958.8599999999998 283.92C942.9 314.1599999999999 904.68 324.6599999999999 873.5999999999999 310.3799999999999L827.8199999999999 289.3799999999999L684.5999999999999 582.54C670.32 611.1 641.34 630 609.42 630H462V882H210V546C210 476.28 266.28 420 336 420H630L737.52 199.5C757.68 158.34 806.4 141.12 847.9799999999999 160.02L929.8799999999998 197.4C961.8 212.52 975.6599999999999 252 958.8599999999998 283.92z"/>
    <glyph glyph-name="airline_seat_legroom_normal" unicode="airline_seat_legroom_normal" horiz-adv-x="1008" d="M210 504V840C210 863.1 191.1 882 168 882S126 863.1 126 840V504C126 388.0800000000001 220.08 294 336 294H546C569.1 294 588 312.9 588 336S569.1 378 546 378H336C266.28 378 210 434.28 210 504zM861 252H798V546C798 592.2 760.2 630 714 630H504V882H252V546C252 476.6999999999999 308.7 420 378 420H672V210C672 163.8 709.8 126 756 126H861C895.8599999999999 126 924 154.1400000000001 924 189S895.8599999999999 252 861 252z"/>
    <glyph glyph-name="airline_seat_legroom_reduced" unicode="airline_seat_legroom_reduced" horiz-adv-x="1008" d="M838.74 201.6C846.3 161.28 815.6399999999999 126 777 126H664.02C609.42 126 569.1 177.24 582.5400000000001 230.5800000000001L630 420H378C308.7 420 252 476.6999999999999 252 546V882H504V630H714C760.2 630 798 592.2 798 546L714 252H774.48C805.1400000000001 252 832.8600000000001 231.4200000000001 838.7400000000001 201.6zM210 504V840C210 863.1 191.1 882 168 882S126 863.1 126 840V504C126 388.0800000000001 220.08 294 336 294H462C485.1 294 504 312.9 504 336S485.1 378 462 378H336C266.28 378 210 434.28 210 504z"/>
    <glyph glyph-name="airline_seat_recline_extra" unicode="airline_seat_recline_extra" horiz-adv-x="1008" d="M224.7 771.12C186.9 798 177.66 850.08 204.12 888.3C230.58 926.1 283.08 935.34 321.3 908.88C359.1 882 368.34 829.9200000000001 341.88 791.7C315 753.9 262.92 744.6600000000001 224.7 771.12zM672 168C672 191.1 653.1 210 630 210H375.06C312.9 210 259.98 255.3599999999999 250.74 316.68L174.72 681.24C170.94 700.14 154.14 714 134.4 714C108.36 714 89.04 690.06 94.08 664.44L167.58 304.0800000000001C183.54 201.6 271.74 126 375.48 126H630C653.1 126 672 144.9 672 168zM652.68 378H476.6999999999999L433.44 550.2C487.1999999999999 519.96 543.9 496.44 605.6399999999999 495.5999999999999C629.9999999999999 495.1799999999999 649.74 516.18 649.74 540.54C649.74 565.3199999999999 629.16 584.22 604.38 585.06C549.3599999999999 586.74 493.9199999999999 608.5799999999999 452.76 640.9200000000001L383.88 694.26C374.2200000000001 701.8199999999999 363.3 706.86 351.9600000000001 710.22C338.5200000000001 714 324.24 715.26 310.38 712.74H309.54C257.88 703.5 223.4400000000001 654.36 232.2600000000001 603.12L288.9600000000001 354.48C300.7200000000001 294.8400000000001 352.38 252 412.86 252H700.56L830.34 150.3599999999999C847.98 136.5 873.18 138.18 888.72 153.7199999999998C907.62 172.6199999999998 905.52 203.2799999999999 884.52 219.6599999999999L704.34 360.3599999999999C689.6399999999999 371.6999999999998 671.58 377.9999999999999 652.68 377.9999999999999z"/>
    <glyph glyph-name="airline_seat_recline_normal" unicode="airline_seat_recline_normal" horiz-adv-x="1008" d="M318.78 780.78C286.02 813.54 286.02 866.88 318.78 899.64S404.88 932.4 437.64 899.64S470.4 813.54 437.64 780.78C404.46 747.5999999999999 351.54 747.5999999999999 318.78 780.78zM252 336V672C252 695.0999999999999 233.1 714 210 714S168 695.0999999999999 168 672V336C168 220.0800000000001 262.08 126 378 126H588C611.1 126 630 144.9 630 168S611.1 210 588 210H378C308.28 210 252 266.28 252 336zM809.76 195.3L651.4200000000001 353.6399999999999C635.8800000000001 369.1799999999999 614.46 377.9999999999999 592.2 377.9999999999999H483.0000000000001V532.56C528.7800000000001 495.1799999999998 594.72 461.16 659.4000000000001 447.7199999999999C687.5400000000002 441.8399999999999 714.0000000000001 462.8399999999999 714.0000000000001 491.4C714.0000000000001 513.66 697.6200000000001 531.72 675.3600000000001 535.5C615.72 545.5799999999999 554.4000000000001 577.9200000000001 517.8600000000001 618.24L459.0600000000001 683.34C451.0800000000001 692.1600000000001 441.0000000000001 699.3 430.0800000000001 704.34C417.9000000000001 710.22 404.0400000000002 714 389.7600000000001 714H388.5000000000001C336.42 714 294 671.5799999999999 294 619.5V378C294 308.28 350.28 252 420 252H632.94L749.7 135.24C766.08 118.8599999999999 793.38 118.8599999999999 809.76 135.24C826.56 151.62 826.56 178.5 809.76 195.3z"/>
    <glyph glyph-name="airplanemode_active" unicode="airplanemode_active" horiz-adv-x="1008" d="M882 395.64C882 410.76 874.02 424.62 861.4200000000001 433.02L546 630V861C546 895.86 517.86 924 483 924S420 895.86 420 861V630L104.58 433.02C91.98 425.04 84 410.76 84 395.6399999999999C84 366.24 112.56 344.82 141.12 353.6399999999999L420 441V210L344.4 153.3C338.94 149.52 336 143.22 336 136.5V111.72C336 97.8600000000001 349.44 87.78 362.88 91.56L483 126L603.12 91.56C616.56 87.78 630 97.8599999999999 630 111.72V136.5C630 143.22 627.06 149.52 621.6 153.3L546 210V441L824.88 353.64C853.44 344.82 882 366.24 882 395.64z"/>
    <glyph glyph-name="airplanemode_inactive" unicode="airplanemode_inactive" horiz-adv-x="1008" d="M824.88 353.64C853.0200000000001 344.82 882 365.82 882 395.64C882 410.76 874.02 424.62 861.4200000000001 433.02L546 630V861C546 895.86 517.86 924 483 924S420 895.86 420 861V730.38L783.3 367.0800000000001L824.8799999999999 353.64zM786.66 126L845.88 185.22L185.22 845.88L126 786.6600000000001L335.58 577.0799999999999L104.58 432.6C91.98 425.0400000000001 84 410.76 84 395.64C84 366.24 112.56 344.8200000000001 141.12 353.64L420 441V210L344.4 153.3C338.94 149.52 336 143.22 336 136.5V111.72C336 97.8600000000001 349.44 87.78 362.88 91.56L483 126L603.12 91.56C616.56 87.78 630 97.8599999999999 630 111.72V136.5C630 143.22 627.06 149.52 621.6 153.3L546 210V366.66L786.66 126z"/>
    <glyph glyph-name="airplay" unicode="airplay" horiz-adv-x="1008" d="M353.2200000000001 84H654.36C691.74 84 710.6400000000001 129.3599999999999 684.18 155.8200000000001L533.4 306.6C517.02 322.98 490.56 322.98 474.1799999999999 306.6L323.4000000000001 155.8200000000001C297.36 129.3600000000001 315.8400000000001 84 353.2200000000001 84zM882 882H126C79.8 882 42 844.2 42 798V294C42 247.8 79.8 210 126 210H252C275.1 210 294 228.9 294 252S275.1 294 252 294H168C144.9 294 126 312.9 126 336V756C126 779.1 144.9 798 168 798H840C863.1 798 882 779.1 882 756V336C882 312.9 863.1 294 840 294H756C732.9 294 714 275.1 714 252S732.9 210 756 210H882C928.2 210 966 247.8 966 294V798C966 844.2 928.2 882 882 882z"/>
    <glyph glyph-name="airport_shuttle" unicode="airport_shuttle" horiz-adv-x="1008" d="M941.22 570.78L738.3599999999999 773.64C722.8199999999999 789.1800000000001 701.4 798 679.1399999999999 798H126C79.8 798 42 760.62 42 714V420C42 373.8000000000001 79.8 336 126 336C126 266.28 182.28 210 252 210S378 266.28 378 336H630C630 266.28 686.28 210 756 210S882 266.28 882 336C928.2 336 966 373.8000000000001 966 420V511.14C966 533.4 957.18 554.82 941.22 570.78zM126 588V672C126 695.0999999999999 144.9 714 168 714H294V546H168C144.9 546 126 564.9 126 588zM252 283.5C223.02 283.5 199.5 307.02 199.5 336S223.02 388.5 252 388.5S304.5 364.98 304.5 336S280.98 283.5 252 283.5zM546 546H378V714H546V546zM756 283.5C727.02 283.5 703.5 307.02 703.5 336S727.02 388.5 756 388.5S808.5 364.98 808.5 336S784.98 283.5 756 283.5zM630 546V714H672L840 546H630z"/>
    <glyph glyph-name="alarm" unicode="alarm" horiz-adv-x="1008" d="M666.54 367.5L525 451.5V641.76C525 658.56 511.56 672 494.76 672H492.24C475.4399999999999 672 461.9999999999999 658.56 461.9999999999999 641.76V443.52C461.9999999999999 428.82 469.5599999999999 414.9599999999999 482.5799999999999 407.4L635.88 315.42C650.16 307.02 668.6399999999999 311.2199999999998 677.0399999999998 325.4999999999999C685.8599999999999 340.1999999999998 681.24 359.0999999999999 666.5399999999998 367.4999999999999zM889.56 797.58L760.2 905.1C742.56 919.8 716.1 917.7 700.98 899.64C686.28 882 688.8000000000001 855.54 706.44 840.42L835.38 732.9C853.0200000000001 718.2 879.48 720.3 894.6 738.3599999999999C909.72 756 907.2 782.4599999999999 889.56 797.5799999999999zM172.2 732.9000000000001L301.14 840.4200000000001C319.2 855.54 321.7200000000001 882 306.6 899.64C291.9000000000001 917.7 265.44 919.8 247.8 905.1L118.44 797.58C100.8 782.46 98.28 756 113.4 738.36C128.1 720.3 154.56 718.2 172.2 732.9000000000001zM504 840C295.26 840 126 670.74 126 462S295.26 84 504 84S882 253.26 882 462S712.74 840 504 840zM504 168C341.88 168 210 299.88 210 462S341.88 756 504 756S798 624.12 798 462S666.12 168 504 168z"/>
    <glyph glyph-name="alarm_add" unicode="alarm_add" horiz-adv-x="1008" d="M889.56 797.58L760.2 905.1C742.56 919.8 716.1 917.7 700.98 899.64C686.28 882 688.8000000000001 855.54 706.44 840.42L835.38 732.9C853.0200000000001 718.2 879.48 720.3 894.6 738.3599999999999C909.72 756 907.2 782.4599999999999 889.56 797.5799999999999zM172.2 732.9000000000001L301.14 840.4200000000001C319.2 855.54 321.7200000000001 882 306.6 899.64C291.9000000000001 917.7 265.44 919.8 247.8 905.1L118.44 797.58C100.8 782.46 98.28 756 113.4 738.36C128.1 720.3 154.56 718.2 172.2 732.9000000000001zM504 840C295.26 840 126 670.74 126 462S295.26 84 504 84S882 253.26 882 462S712.74 840 504 840zM504 168C341.88 168 210 299.88 210 462S341.88 756 504 756S798 624.12 798 462S666.12 168 504 168zM630 504H546V588C546 611.1 527.1 630 504 630S462 611.1 462 588V504H378C354.9 504 336 485.1 336 462S354.9 420 378 420H462V336C462 312.9 480.9 294 504 294S546 312.9 546 336V420H630C653.1 420 672 438.9 672 462S653.1 504 630 504z"/>
    <glyph glyph-name="alarm_off" unicode="alarm_off" horiz-adv-x="1008" d="M421.68 743.8199999999999C447.7200000000001 751.38 475.44 756 504 756C666.12 756 798 624.12 798 462C798 433.4400000000001 793.38 405.7200000000001 785.82 379.68L851.34 314.16C871.0799999999999 359.52 882 409.5 882 462C882 670.74 712.74 840 504 840C451.5 840 401.5200000000001 829.08 355.74 809.76L421.6800000000001 743.8199999999999zM155.82 890.8199999999999C139.86 906.78 113.82 906.78 97.44 890.8199999999999L96.6 889.56C80.22 873.1800000000001 80.22 847.14 96.6 831.1800000000001L125.16 802.62L118.02 796.74C100.38 782.46 98.28 756.4200000000001 112.56 738.78L113.82 737.52C128.52 719.88 154.14 717.78 171.78 732.48L184.8 742.98L218.4 709.38C160.86 643.02 126 556.5 126 462C126 253.26 295.26 84 504 84C598.5 84 685.02 118.8599999999999 751.38 176.4L810.6 117.18C826.56 101.22 852.6 101.22 868.98 117.18L870.2400000000001 118.4400000000001C886.2 134.4 886.2 160.4400000000001 870.2400000000001 176.8200000000001L155.8200000000001 890.82zM504 168C341.88 168 210 299.88 210 462C210 533.4 235.62 598.9200000000001 278.04 649.74L691.74 236.0399999999999C640.92 193.62 575.4 168 504 168zM836.22 732.48C853.8600000000001 717.78 879.48 720.3 894.18 737.52L895.44 738.78C910.1400000000002 756.42 907.62 782.04 890.4 796.74L760.1999999999999 905.52C742.5599999999998 920.22 716.9399999999998 917.7 702.24 900.48L700.9799999999999 899.22C686.2799999999999 881.5799999999999 688.8 855.96 706.02 841.26L836.22 732.48zM312.06 853.44C319.62 867.72 318.36 885.78 307.44 899.22L306.18 900.48C293.58 915.6 272.58 918.54 255.78 909.72L312.06 853.44z"/>
    <glyph glyph-name="alarm_on" unicode="alarm_on" horiz-adv-x="1008" d="M627.48 583.38L442.68 397.74L375.48 464.9400000000001C363.3 477.12 343.14 477.12 330.96 464.9400000000001C318.78 452.76 318.78 432.6 330.96 420.42L420 331.38C432.18 319.2000000000001 452.34 319.2000000000001 464.52 331.38L672 538.86C684.18 551.04 684.18 571.2 672 583.38C659.82 595.56 639.66 595.56 627.48 583.38zM889.56 797.58L760.2 905.1C742.56 919.8 716.1 917.7 700.98 899.64C686.28 882 688.8000000000001 855.54 706.44 840.42L835.38 732.9C853.0200000000001 718.2 879.48 720.3 894.6 738.3599999999999C909.72 756 907.2 782.4599999999999 889.56 797.5799999999999zM172.2 732.9000000000001L301.14 840.4200000000001C319.2 855.54 321.7200000000001 882 306.6 899.64C291.9000000000001 917.7 265.44 919.8 247.8 905.1L118.44 797.58C100.8 782.46 98.28 756 113.4 738.36C128.1 720.3 154.56 718.2 172.2 732.9000000000001zM504 840C295.26 840 126 670.74 126 462S295.26 84 504 84S882 253.26 882 462S712.74 840 504 840zM504 168C341.88 168 210 299.88 210 462S341.88 756 504 756S798 624.12 798 462S666.12 168 504 168z"/>
    <glyph glyph-name="album" unicode="album" horiz-adv-x="1008" d="M504 924C272.1600000000001 924 84 735.8399999999999 84 504S272.1600000000001 84 504 84S924 272.16 924 504S735.84 924 504 924zM504 315C399.42 315 315 399.42 315 504S399.42 693 504 693S693 608.5799999999999 693 504S608.58 315 504 315zM504 546C480.9 546 462 527.1 462 504S480.9 462 504 462S546 480.9 546 504S527.1 546 504 546z"/>
    <glyph glyph-name="all_inbox" unicode="all_inbox" horiz-adv-x="1008" d="M798 882H210C163.8 882 126 844.2 126 798V504C126 457.8000000000001 163.8 420 210 420H798C844.2 420 882 457.8000000000001 882 504V798C882 844.2 844.2 882 798 882zM798 630H666.12C646.38 630 630.84 616.14 625.38 597.24C610.26 544.32 560.6999999999999 504 504 504S397.74 544.32 382.62 597.24C377.16 616.14 361.62 630 341.88 630H210V756C210 779.1 228.9 798 252 798H756C779.1 798 798 779.1 798 756V630zM666.5400000000001 336H840C863.1 336 882 317.1 882 294V210C882 163.8 844.2 126 798 126H210C163.8 126 126 163.8 126 210V294C126 317.1 144.9 336 168 336H341.46C361.2 336 377.16 321.7200000000001 382.62 302.4C397.32 249.06 446.04 210 504 210S610.68 249.06 625.38 302.4C630.84 321.7200000000001 646.8000000000001 336 666.5400000000001 336z"/>
    <glyph glyph-name="all_inclusive" unicode="all_inclusive" horiz-adv-x="1008" d="M849.24 719.88C765.24 745.0799999999999 678.72 721.56 622.8599999999999 665.7L504 560.28L440.1600000000001 504H440.58L327.6 403.62C293.58 369.5999999999999 245.7 355.32 196.56 364.98C144.06 375.48 100.8 417.48 88.62 469.5599999999999C66.78 563.22 137.34 645.96 226.8 645.96C265.0200000000001 645.96 300.7200000000001 631.26 329.28 602.7L349.0200000000001 585.48C364.9800000000001 571.2 388.92 571.2 404.88 585.48C423.78 602.28 423.78 631.68 404.88 648.48L387.24 663.5999999999999C344.4 706.44 287.28 729.96 226.8 729.96C101.64 729.96 0 628.32 0 504S101.64 278.0400000000001 226.8 278.0400000000001C287.28 278.0400000000001 344.4 301.56 385.14 342.3000000000001L504 447.3000000000001L504.42 446.88L567.84 504H567.42L680.4 604.38C714.42 638.4000000000001 762.3 652.6800000000001 811.44 643.02C863.94 632.52 907.2 590.52 919.38 538.44C941.22 444.78 870.66 362.0400000000001 781.2 362.0400000000001C743.4000000000001 362.0400000000001 707.28 376.74 678.72 405.3000000000001L658.56 422.9400000000001C642.5999999999999 437.2200000000001 618.66 437.2200000000001 602.6999999999999 422.9400000000001C583.8000000000001 406.14 583.8000000000001 376.74 602.6999999999999 359.9400000000001L620.34 344.4000000000001C663.18 301.98 719.88 278.4600000000002 780.78 278.4600000000002C918.12 278.4600000000002 1026.8999999999999 400.2600000000001 1004.6400000000002 540.96C992.04 624.5400000000002 930.3 695.94 849.2400000000001 719.8800000000001z"/>
    <glyph glyph-name="all_out" unicode="all_out" horiz-adv-x="1008" d="M168 819V672L336 840H189C177.24 840 168 830.76 168 819zM672 840L840 672V819C840 830.76 830.76 840 819 840H672zM840 189V336L672 168H819C830.76 168 840 177.24 840 189zM189 168H336L168 336V189C168 177.24 177.24 168 189 168zM798 504C798 666.54 666.5400000000001 798 504 798S210 666.54 210 504S341.46 210 504 210S798 341.4599999999999 798 504zM504 294C388.08 294 294 388.0800000000001 294 504S388.08 714 504 714S714 619.9200000000001 714 504S619.92 294 504 294z"/>
    <glyph glyph-name="alternate_email" unicode="alternate_email" horiz-adv-x="1008" d="M534.24 922.74C278.46 940.8 67.2 729.54 85.26 473.76C100.38 251.58 294.42 84 517.02 84H672C695.1 84 714 102.9 714 126S695.1 168 672 168H517.86C361.2 168 217.56 269.6400000000001 178.5 421.26C115.92 664.8600000000001 342.7200000000001 892.08 586.32 829.0800000000002C738.3599999999999 790.44 840 646.8 840 490.14V443.9400000000001C840 410.76 810.18 378 777 378S714 410.76 714 443.9400000000001V496.44C714 601.86 639.24 696.78 535.08 711.48C392.28 732.06 271.74 608.5799999999999 297.36 464.9400000000001C311.64 384.7200000000001 374.2200000000001 318.3599999999999 453.6 299.4599999999999C530.88 281.4 604.38 306.18 652.6800000000001 355.32C690.06 304.08 764.82 277.2 833.28 304.5C889.56 326.76 924 384.3000000000001 924 444.78V490.5599999999999C924 713.5799999999999 756.42 907.62 534.24 922.74zM504 378C434.28 378 378 434.28 378 504S434.28 630 504 630S630 573.72 630 504S573.72 378 504 378z"/>
    <glyph glyph-name="android" unicode="android" horiz-adv-x="1008" d="M252 252C252 228.9 270.9000000000001 210 294 210H336V63C336 28.1400000000001 364.14 0 399 0S462 28.1400000000001 462 63V210H546V63C546 28.1400000000001 574.14 0 609 0S672 28.1400000000001 672 63V210H714C737.1 210 756 228.9 756 252V672H252V252zM147 672C112.14 672 84 643.86 84 609V315C84 280.1400000000001 112.14 252 147 252S210 280.1400000000001 210 315V609C210 643.86 181.86 672 147 672zM861 672C826.1400000000001 672 798 643.86 798 609V315C798 280.1400000000001 826.1400000000001 252 861 252S924 280.1400000000001 924 315V609C924 643.86 895.8599999999999 672 861 672zM652.26 917.28L706.8600000000001 971.88C715.26 980.28 715.26 993.3 706.8600000000001 1001.7S685.44 1010.1 677.0400000000001 1001.7L614.88 939.54C581.6999999999999 956.34 543.9 966 504 966C463.6799999999999 966 425.88 956.34 392.28 939.54L329.7 1001.7C321.3 1010.1 308.28 1010.1 299.88 1001.7C291.48 993.3 291.48 980.28 299.88 971.88L354.9 916.86C292.74 871.08 252 797.58 252 714H756C756 797.58 715.26 871.5 652.26 917.28zM420 798H378V840H420V798zM630 798H588V840H630V798z"/>
    <glyph glyph-name="announcement" unicode="announcement" horiz-adv-x="1008" d="M840 924H168C121.8 924 84 886.2 84 840V84L252 252H840C886.2 252 924 289.8 924 336V840C924 886.2 886.2 924 840 924zM504 546C480.9 546 462 564.9 462 588V756C462 779.1 480.9 798 504 798S546 779.1 546 756V588C546 564.9 527.1 546 504 546zM546 378H462V462H546V378z"/>
    <glyph glyph-name="apps" unicode="apps" horiz-adv-x="1008" d="M168 672H336V840H168V672zM420 168H588V336H420V168zM168 168H336V336H168V168zM168 420H336V588H168V420zM420 420H588V588H420V420zM672 840V672H840V840H672zM420 672H588V840H420V672zM672 420H840V588H672V420zM672 168H840V336H672V168z"/>
    <glyph glyph-name="archive" unicode="archive" horiz-adv-x="1008" d="M862.68 788.3399999999999L804.3 858.9C792.9599999999999 873.1800000000001 775.74 882 756 882H252C232.26 882 215.04 873.1800000000001 203.28 858.9L145.32 788.3399999999999C133.14 774.06 126 755.1600000000001 126 735V210C126 163.8 163.8 126 210 126H798C844.2 126 882 163.8 882 210V735C882 755.1600000000001 874.8599999999999 774.06 862.68 788.3399999999999zM489.3 287.7000000000001L273 504H420V588H588V504H735L518.6999999999999 287.7000000000001C510.72 279.7200000000001 497.28 279.7200000000001 489.3 287.7000000000001zM215.04 798L249.06 840H753.06L792.5400000000001 798H215.04z"/>
    <glyph glyph-name="arrow_back" unicode="arrow_back" horiz-adv-x="1008" d="M798 546H328.86L533.82 750.96C550.2 767.3399999999999 550.2 794.22 533.82 810.6C517.44 826.98 490.9800000000001 826.98 474.6 810.6L197.8200000000001 533.82C181.4400000000001 517.44 181.4400000000001 490.98 197.8200000000001 474.6L474.6 197.8200000000001C490.9800000000001 181.4400000000001 517.44 181.4400000000001 533.82 197.8200000000001C550.2 214.2000000000001 550.2 240.66 533.82 257.0400000000001L328.86 462H798C821.1 462 840 480.9 840 504S821.1 546 798 546z"/>
    <glyph glyph-name="arrow_back_ios" unicode="arrow_back_ios" horiz-adv-x="1008" d="M698.0400000000001 882.42C677.4600000000002 903 644.2800000000001 903 623.7 882.42L274.68 533.4C258.3 517.02 258.3 490.5599999999999 274.68 474.1799999999999L623.7 125.1599999999999C644.2800000000001 104.5799999999999 677.4600000000002 104.5799999999999 698.0400000000001 125.1599999999999S718.62 178.92 698.0400000000001 199.4999999999999L393.9600000000001 504L698.4600000000002 808.5C718.6200000000001 828.6600000000001 718.6200000000001 862.26 698.0400000000001 882.42z"/>
    <glyph glyph-name="arrow_downward" unicode="arrow_downward" horiz-adv-x="1008" d="M462 798V328.8599999999999L257.04 533.8199999999999C240.6600000000001 550.1999999999999 213.78 550.1999999999999 197.4 533.8199999999999C181.02 517.4399999999998 181.02 490.9799999999999 197.4 474.5999999999999L474.1799999999999 197.8199999999999C490.56 181.4399999999998 517.02 181.4399999999998 533.4 197.8199999999999L810.18 474.5999999999999C826.56 490.9799999999999 826.56 517.4399999999998 810.18 533.8199999999999C793.8 550.1999999999999 767.34 550.1999999999999 750.9599999999999 533.8199999999999L546 328.8599999999999V798C546 821.1 527.1 840 504 840S462 821.1 462 798z"/>
    <glyph glyph-name="arrow_drop_down" unicode="arrow_drop_down" horiz-adv-x="1008" d="M365.8200000000001 516.18L474.6 407.4C490.9800000000001 391.02 517.44 391.02 533.82 407.4L642.6 516.18C669.0600000000001 542.64 650.16 588 612.78 588H395.2200000000001C357.84 588 339.36 542.64 365.8200000000001 516.18z"/>
    <glyph glyph-name="arrow_drop_down_circle" unicode="arrow_drop_down_circle" horiz-adv-x="1008" d="M504 924C272.1600000000001 924 84 735.8399999999999 84 504S272.1600000000001 84 504 84S924 272.16 924 504S735.84 924 504 924zM489.3 392.7L372.12 509.88C358.68 523.32 367.92 546 386.82 546H621.5999999999999C640.4999999999999 546 649.74 523.32 636.3 510.3L519.12 393.12C510.72 384.7200000000001 497.28 384.7200000000001 489.3 392.7z"/>
    <glyph glyph-name="arrow_drop_up" unicode="arrow_drop_up" horiz-adv-x="1008" d="M365.8200000000001 491.8200000000001L474.6 600.6C490.9800000000001 616.98 517.44 616.98 533.82 600.6L642.6 491.8200000000001C669.0600000000001 465.36 650.16 420 612.78 420H395.2200000000001C357.84 420 339.36 465.36 365.8200000000001 491.8200000000001z"/>
    <glyph glyph-name="arrow_forward" unicode="arrow_forward" horiz-adv-x="1008" d="M210 462H679.1400000000001L474.1800000000001 257.0400000000001C457.8000000000001 240.66 457.8000000000001 213.78 474.1800000000001 197.4000000000001C490.5600000000001 181.0200000000001 517.0200000000001 181.0200000000001 533.4000000000001 197.4000000000001L810.1800000000001 474.1800000000001C826.5600000000002 490.5600000000002 826.5600000000002 517.0200000000001 810.1800000000001 533.4000000000001L533.8200000000002 810.6000000000001C517.44 826.9800000000001 490.9800000000001 826.9800000000001 474.6000000000001 810.6000000000001C458.2200000000001 794.2200000000001 458.2200000000001 767.7600000000001 474.6000000000001 751.3800000000001L679.1400000000001 546H210C186.9 546 168 527.1 168 504S186.9 462 210 462z"/>
    <glyph glyph-name="arrow_forward_ios" unicode="arrow_forward_ios" horiz-adv-x="1008" d="M309.96 125.5799999999999C330.54 105 363.7200000000001 105 384.3 125.5799999999999L733.32 474.5999999999999C749.7 490.98 749.7 517.4399999999999 733.32 533.8199999999999L384.3 882.84C363.7200000000001 903.42 330.54 903.42 309.9600000000001 882.84S289.38 829.08 309.9600000000001 808.5L614.04 504L309.54 199.5C289.38 179.34 289.38 145.74 309.96 125.5799999999999z"/>
    <glyph glyph-name="arrow_left" unicode="arrow_left" horiz-adv-x="1008" d="M516.18 642.18L407.4 533.4C391.0199999999999 517.02 391.0199999999999 490.5599999999999 407.4 474.1799999999999L516.18 365.4C542.64 338.94 588 357.8400000000001 588 395.2200000000001V612.78C588 650.1600000000001 542.64 668.64 516.18 642.18z"/>
    <glyph glyph-name="arrow_right" unicode="arrow_right" horiz-adv-x="1008" d="M491.8200000000001 365.8200000000001L600.6 474.6C616.98 490.98 616.98 517.44 600.6 533.82L491.8200000000001 642.6C465.36 668.64 420 650.1600000000001 420 612.78V395.64C420 357.8400000000001 465.36 339.36 491.8200000000001 365.8200000000001z"/>
    <glyph glyph-name="arrow_right_alt" unicode="arrow_right_alt" horiz-adv-x="1008" d="M672.4200000000001 546H210C186.9 546 168 527.1 168 504S186.9 462 210 462H672.42V386.8200000000001C672.42 367.9200000000001 695.0999999999999 358.6800000000001 708.12 372.12L824.88 489.3000000000001C832.8600000000001 497.7 832.8600000000001 510.7200000000001 824.88 519.1200000000001L708.12 636.3000000000001C695.1 649.7400000000001 672.42 640.0800000000002 672.42 621.6000000000001V546z"/>
    <glyph glyph-name="arrow_upward" unicode="arrow_upward" horiz-adv-x="1008" d="M546 210V679.14L750.9599999999999 474.1799999999999C767.34 457.8 794.22 457.8 810.5999999999999 474.1799999999999C826.9799999999999 490.5599999999999 826.9799999999999 517.02 810.5999999999999 533.4L533.8199999999999 810.18C517.4399999999998 826.56 490.9799999999999 826.56 474.5999999999999 810.18L197.3999999999999 533.8199999999999C181.0199999999999 517.4399999999999 181.0199999999999 490.98 197.3999999999999 474.5999999999999C213.7799999999999 458.2199999999999 240.2399999999999 458.2199999999999 256.6199999999999 474.5999999999999L462 679.14V210C462 186.9 480.9 168 504 168S546 186.9 546 210z"/>
    <glyph glyph-name="art_track" unicode="art_track" horiz-adv-x="1008" d="M882 462H630C606.9 462 588 480.9 588 504S606.9 546 630 546H882C905.1 546 924 527.1 924 504S905.1 462 882 462zM882 714H630C606.9 714 588 695.0999999999999 588 672S606.9 630 630 630H882C905.1 630 924 648.9 924 672S905.1 714 882 714zM630 294H882C905.1 294 924 312.9 924 336S905.1 378 882 378H630C606.9 378 588 359.1 588 336S606.9 294 630 294zM504 630V378C504 331.8 466.2 294 420 294H168C121.8 294 84 331.8 84 378V630C84 676.2 121.8 714 168 714H420C466.2 714 504 676.2 504 630zM415.8 411.6L362.88 482.16C354.4800000000001 493.08 338.1 493.5 329.2800000000001 482.58L273 409.0800000000001L237.3 452.34C228.9 462.84 212.94 462.42 204.54 451.92L173.46 412.02C162.54 398.16 172.62 378 189.84 378H399C416.2200000000001 378 426.3 397.74 415.8 411.6z"/>
    <glyph glyph-name="aspect_ratio" unicode="aspect_ratio" horiz-adv-x="1008" d="M756 504C732.9 504 714 485.1 714 462V378H630C606.9 378 588 359.1 588 336S606.9 294 630 294H756C779.1 294 798 312.9 798 336V462C798 485.1 779.1 504 756 504zM294 630H378C401.1 630 420 648.9 420 672S401.1 714 378 714H252C228.9 714 210 695.0999999999999 210 672V546C210 522.9 228.9 504 252 504S294 522.9 294 546V630zM882 882H126C79.8 882 42 844.2 42 798V210C42 163.8 79.8 126 126 126H882C928.2 126 966 163.8 966 210V798C966 844.2 928.2 882 882 882zM840 209.5799999999999H168C144.9 209.5799999999999 126 228.4799999999999 126 251.58V756.42C126 779.52 144.9 798.42 168 798.42H840C863.1 798.42 882 779.52 882 756.42V251.5800000000001C882 228.48 863.1 209.5800000000001 840 209.5800000000001z"/>
    <glyph glyph-name="assessment" unicode="assessment" horiz-adv-x="1008" d="M798 882H210C163.8 882 126 844.2 126 798V210C126 163.8 163.8 126 210 126H798C844.2 126 882 163.8 882 210V798C882 844.2 844.2 882 798 882zM336 294C312.9000000000001 294 294 312.9 294 336V546C294 569.1 312.9000000000001 588 336 588S378 569.1 378 546V336C378 312.9 359.1 294 336 294zM504 294C480.9 294 462 312.9 462 336V672C462 695.0999999999999 480.9 714 504 714S546 695.0999999999999 546 672V336C546 312.9 527.1 294 504 294zM672 294C648.9 294 630 312.9 630 336V420C630 443.1 648.9 462 672 462S714 443.1 714 420V336C714 312.9 695.1 294 672 294z"/>
    <glyph glyph-name="assignment" unicode="assignment" horiz-adv-x="1008" d="M798 882H622.44C604.8000000000001 930.72 558.6 966 504 966S403.2 930.72 385.56 882H210C163.8 882 126 844.2 126 798V210C126 163.8 163.8 126 210 126H798C844.2 126 882 163.8 882 210V798C882 844.2 844.2 882 798 882zM504 882C527.1 882 546 863.1 546 840S527.1 798 504 798S462 816.9 462 840S480.9 882 504 882zM546 294H336C312.9000000000001 294 294 312.9 294 336S312.9000000000001 378 336 378H546C569.1 378 588 359.1 588 336S569.1 294 546 294zM672 462H336C312.9000000000001 462 294 480.9 294 504S312.9000000000001 546 336 546H672C695.1 546 714 527.1 714 504S695.1 462 672 462zM672 630H336C312.9000000000001 630 294 648.9 294 672S312.9000000000001 714 336 714H672C695.1 714 714 695.0999999999999 714 672S695.1 630 672 630z"/>
    <glyph glyph-name="assignment_ind" unicode="assignment_ind" horiz-adv-x="1008" d="M798 882H622.44C604.8000000000001 930.72 558.6 966 504 966S403.2 930.72 385.56 882H210C163.8 882 126 844.2 126 798V210C126 163.8 163.8 126 210 126H798C844.2 126 882 163.8 882 210V798C882 844.2 844.2 882 798 882zM504 882C527.1 882 546 863.1 546 840S527.1 798 504 798S462 816.9 462 840S480.9 882 504 882zM504 714C573.72 714 630 657.72 630 588S573.72 462 504 462S378 518.28 378 588S434.28 714 504 714zM756 210H252V268.8C252 352.8 420 398.9999999999999 504 398.9999999999999S756 352.8 756 268.8V210z"/>
    <glyph glyph-name="assignment_late" unicode="assignment_late" horiz-adv-x="1008" d="M798 882H622.44C604.8000000000001 930.72 558.6 966 504 966S403.2 930.72 385.56 882H210C163.8 882 126 844.2 126 798V210C126 163.8 163.8 126 210 126H798C844.2 126 882 163.8 882 210V798C882 844.2 844.2 882 798 882zM546 252H462V336H546V252zM546 462C546 438.9 527.1 420 504 420S462 438.9 462 462V630C462 653.1 480.9 672 504 672S546 653.1 546 630V462zM504 798C480.9 798 462 816.9 462 840S480.9 882 504 882S546 863.1 546 840S527.1 798 504 798z"/>
    <glyph glyph-name="assignment_return" unicode="assignment_return" horiz-adv-x="1008" d="M798 882H622.44C604.8000000000001 930.72 558.6 966 504 966S403.2 930.72 385.56 882H210C163.8 882 126 844.2 126 798V210C126 163.8 163.8 126 210 126H798C844.2 126 882 163.8 882 210V798C882 844.2 844.2 882 798 882zM504 882C527.1 882 546 863.1 546 840S527.1 798 504 798S462 816.9 462 840S480.9 882 504 882zM672 378H504V252L308.7 447.3000000000001C300.3 455.6999999999999 300.3 468.72 308.7 477.12L504 672V546H672V378z"/>
    <glyph glyph-name="assignment_returned" unicode="assignment_returned" horiz-adv-x="1008" d="M798 882H622.44C604.8000000000001 930.72 558.6 966 504 966S403.2 930.72 385.56 882H210C163.8 882 126 844.2 126 798V210C126 163.8 163.8 126 210 126H798C844.2 126 882 163.8 882 210V798C882 844.2 844.2 882 798 882zM504 882C527.1 882 546 863.1 546 840S527.1 798 504 798S462 816.9 462 840S480.9 882 504 882zM489.3 266.7000000000001L294 462H420V630H588V462H714L518.6999999999999 266.7000000000001C510.72 258.7200000000001 497.28 258.7200000000001 489.3 266.7000000000001z"/>
    <glyph glyph-name="assignment_turned_in" unicode="assignment_turned_in" horiz-adv-x="1008" d="M798 882H622.44C604.8000000000001 930.72 558.6 966 504 966S403.2 930.72 385.56 882H210C163.8 882 126 844.2 126 798V210C126 163.8 163.8 126 210 126H798C844.2 126 882 163.8 882 210V798C882 844.2 844.2 882 798 882zM504 882C527.1 882 546 863.1 546 840S527.1 798 504 798S462 816.9 462 840S480.9 882 504 882zM390.18 323.8200000000001L281.4000000000001 432.6C265.0200000000001 448.98 265.0200000000001 475.4400000000001 281.4000000000001 491.8200000000001C297.78 508.2 324.24 508.2 340.62 491.8200000000001L420 412.86L666.9599999999999 659.82C683.34 676.2 709.8 676.2 726.18 659.82C742.56 643.44 742.56 616.98 726.18 600.6L449.4 323.8200000000001C433.44 307.4400000000001 406.56 307.4400000000001 390.18 323.8200000000001z"/>
    <glyph glyph-name="assistant" unicode="assistant" horiz-adv-x="1008" d="M798 924H210C163.8 924 126 886.2 126 840V252C126 205.8 163.8 168 210 168H378L474.1799999999999 71.8200000000001C490.56 55.4400000000001 517.02 55.4400000000001 533.4 71.8200000000001L630 168H798C844.2 168 882 205.8 882 252V840C882 886.2 844.2 924 798 924zM582.9599999999999 467.04L504 294L425.04 467.0400000000001L252 546L425.04 624.96L504 798L582.9599999999999 624.96L756 546L582.9599999999999 467.0400000000001z"/>
    <glyph glyph-name="assistant_photo" unicode="assistant_photo" horiz-adv-x="1008" d="M604.8000000000001 756L594.72 806.4C590.94 825.72 573.72 840 553.56 840H252C228.9 840 210 821.1 210 798V168C210 144.9 228.9 126 252 126S294 144.9 294 168V420H529.1999999999999L539.28 369.6C543.06 349.86 560.28 336 580.44 336H798C821.1 336 840 354.9 840 378V714C840 737.0999999999999 821.1 756 798 756H604.8000000000001z"/>
    <glyph glyph-name="atm" unicode="atm" horiz-adv-x="1008" d="M336 598.5C336 581.28 350.28 567 367.5 567H430.5V409.5C430.5 392.28 444.78 378 462 378S493.5 392.28 493.5 409.5V567H556.5C573.72 567 588 581.28 588 598.5S573.72 630 556.5 630H367.5C350.28 630 336 615.72 336 598.5zM252 630H126C102.9 630 84 611.1 84 588V409.5C84 392.28 98.28 378 115.5 378S147 392.28 147 409.5V441H231V409.5C231 392.28 245.28 378 262.5 378S294 392.28 294 409.5V588C294 611.1 275.1 630 252 630zM231 504H147V567H231V504zM882 630H693C669.9 630 651 611.1 651 588V409.5C651 392.28 665.28 378 682.5 378S714 392.28 714 409.5V567H756V451.5C756 434.28 770.28 420 787.5 420S819 434.28 819 451.5V567.4200000000001H861V409.5C861 392.28 875.28 378 892.5 378S924 392.28 924 409.5V588C924 611.1 905.1 630 882 630z"/>
    <glyph glyph-name="attach_file" unicode="attach_file" horiz-adv-x="1008" d="M693 724.5V280.1400000000001C693 192.3600000000001 628.74 114.2400000000001 541.38 105.8400000000002C441 96.1800000000001 357 174.7200000000002 357 273.0000000000001V792.12C357 847.14 396.48 897.12 451.08 902.58C514.08 908.88 567 859.74 567 798V357C567 333.9 548.1 315 525 315S483 333.9 483 357V724.5C483 741.72 468.72 756 451.5 756S420 741.72 420 724.5V362.88C420 307.8600000000002 459.48 257.88 514.08 252.4200000000001C577.08 246.1200000000001 630 295.26 630 357.0000000000001V790.86C630 878.64 565.74 956.76 478.38 965.16C378.42 974.82 294 896.28 294 798V282.66C294 162.12 382.2 54.18 502.3200000000001 42.84C640.5 30.24 756 137.76 756 273V724.5C756 741.72 741.72 756 724.5 756S693 741.72 693 724.5z"/>
    <glyph glyph-name="attach_money" unicode="attach_money" horiz-adv-x="1008" d="M495.6 550.2C400.2600000000001 574.98 369.6 600.5999999999999 369.6 640.5C369.6 686.28 412.0200000000001 718.2 483 718.2C542.64 718.2 572.4599999999999 695.52 583.38 659.4C588.42 642.5999999999999 602.28 630 619.92 630H632.52C660.24 630 679.98 657.3 670.32 683.3399999999999C652.6800000000001 732.9 611.52 774.06 546 790.02V819C546 853.86 517.86 882 483 882S420 853.86 420 819V791.28C338.5200000000001 773.64 273 720.72 273 639.6600000000001C273 542.64 353.2200000000001 494.34 470.4 466.2C575.4 441.0000000000001 596.4 404.0400000000001 596.4 364.98C596.4 336.0000000000001 575.8199999999999 289.8000000000001 483 289.8000000000001C413.7 289.8000000000001 378 314.5800000000001 364.14 349.8600000000002C357.84 366.2400000000001 343.56 378.0000000000001 326.34 378.0000000000001H314.58C286.44 378.0000000000001 266.7 349.4400000000001 277.2 323.4000000000001C301.14 265.0200000000001 357 230.5800000000001 420 217.1400000000001V189C420 154.1400000000001 448.14 126 483 126S546 154.1400000000001 546 189V216.3C627.9 231.8400000000001 693 279.3 693 365.4C693 484.6799999999999 590.94 525.4200000000001 495.6 550.2z"/>
    <glyph glyph-name="attachment" unicode="attachment" horiz-adv-x="1008" d="M745.5 336H301.14C213.36 336 135.24 400.26 126.84 487.62C117.18 587.5799999999999 195.72 672 294 672H813.12C868.1399999999999 672 918.12 632.52 923.58 577.9200000000001C929.8799999999998 514.9200000000001 880.74 462 819 462H378C354.9 462 336 480.9 336 504S354.9 546 378 546H745.5C762.72 546 777 560.28 777 577.5S762.72 609 745.5 609H383.88C328.86 609 278.88 569.52 273.42 514.9200000000001C267.12 451.92 316.2600000000001 399 378 399H811.8599999999999C899.6399999999999 399 977.7599999999998 463.26 986.1599999999999 550.62C995.82 651 917.2799999999997 735 818.9999999999999 735H303.6600000000001C183.12 735 75.18 646.8 63.84 526.68C51.24 388.5 158.76 273 294.0000000000001 273H745.5C762.72 273 777 287.28 777 304.5S762.72 336 745.5 336z"/>
    <glyph glyph-name="audiotrack" unicode="audiotrack" horiz-adv-x="1008" d="M504 798V438.9C464.52 461.5799999999999 415.8 470.4 364.14 452.34C307.86 432.18 264.6 382.2 254.52 323.4C235.2 208.3200000000001 332.6400000000001 110.0399999999999 447.3 128.0999999999999C529.62 141.1199999999998 588 216.7199999999998 588 300.3V714H672C718.2 714 756 751.8 756 798S718.2 882 672 882H588C541.8000000000001 882 504 844.2 504 798z"/>
    <glyph glyph-name="autorenew" unicode="autorenew" horiz-adv-x="1008" d="M504 756V680.8199999999999C504 661.9200000000001 526.68 652.68 539.6999999999999 666.12L656.88 783.3C665.28 791.7 665.28 804.72 656.88 813.12L539.7 930.3C526.6800000000001 943.32 504.0000000000001 934.08 504.0000000000001 915.18V840C318.3600000000001 840 168.0000000000001 689.64 168.0000000000001 504C168.0000000000001 460.3200000000001 176.4000000000001 418.3200000000001 191.9400000000001 380.1C203.2800000000001 351.9600000000001 239.4000000000001 344.4000000000001 260.8200000000001 365.8200000000001C272.1600000000001 377.16 276.7800000000001 394.38 270.4800000000001 409.5C258.3 438.48 252 470.8200000000001 252 504C252 643.02 364.98 756 504 756zM747.18 642.18C735.84 630.8399999999999 731.22 613.2 737.52 598.5C749.28 569.1 756 537.18 756 504C756 364.98 643.02 252 504 252V327.18C504 346.08 481.3200000000001 355.32 468.3 341.88L351.12 224.6999999999999C342.7200000000001 216.3 342.7200000000001 203.2799999999999 351.12 194.8799999999999L468.3 77.6999999999999C481.3199999999999 64.68 503.9999999999999 73.92 503.9999999999999 92.4V168C689.6399999999999 168 840 318.3599999999999 840 504C840 547.68 831.6 589.68 816.06 627.9C804.72 656.04 768.6 663.5999999999999 747.18 642.18z"/>
    <glyph glyph-name="av_timer" unicode="av_timer" horiz-adv-x="1008" d="M462 294A42 42 0 0 1 546 294A42 42 0 0 1 462 294M252 504A42 42 0 0 1 336 504A42 42 0 0 1 252 504M672 504A42 42 0 0 1 756 504A42 42 0 0 1 672 504M504 882C480.9 882 462 863.1 462 840V756C462 732.9000000000001 480.9 714 504 714S546 732.9000000000001 546 756V794.64C685.02 774.48 792.5400000000001 658.14 798 514.9200000000001C803.88 353.2200000000001 670.74 212.52 509.04 210C343.98 207.48 210 339.78 210 504C210 574.56 234.78 639.24 276.36 689.64L474.1799999999999 491.4C490.56 475.02 517.02 475.02 533.4 491.4C549.78 507.78 549.78 534.24 533.4 550.62L304.92 778.6800000000001C288.96 794.64 262.92 795.06 246.12 779.52C172.2 711.06 126 613.2 126 504C126 292.3200000000001 299.88 120.9600000000002 512.82 126C710.22 130.62 875.2800000000002 294.42 881.58 491.8200000000001C888.72 706.02 716.94 882 504 882z"/>
    <glyph glyph-name="backspace" unicode="backspace" horiz-adv-x="1008" d="M924 882H294C265.0200000000001 882 242.34 867.3 227.22 845.04L15.54 527.1C6.3 512.82 6.3 494.76 15.54 480.48L227.22 162.9600000000002C242.3400000000001 141.1200000000001 265.0200000000001 126.0000000000001 294 126.0000000000001H924C970.2 126.0000000000001 1008 163.8000000000001 1008 210.0000000000001V798C1008 844.2 970.2 882 924 882zM768.6 323.4C752.22 307.02 725.76 307.02 709.38 323.4L588 444.78L466.62 323.4C450.24 307.02 423.78 307.02 407.4 323.4C391.0199999999999 339.78 391.0199999999999 366.24 407.4 382.62L528.78 504L407.4 625.38C391.0199999999999 641.76 391.0199999999999 668.22 407.4 684.6C423.78 700.98 450.24 700.98 466.62 684.6L588 563.22L709.38 684.6C725.76 700.98 752.22 700.98 768.6 684.6C784.98 668.22 784.98 641.76 768.6 625.38L647.22 504L768.6 382.62C784.56 366.66 784.56 339.78 768.6 323.4z"/>
    <glyph glyph-name="backup" unicode="backup" horiz-adv-x="1008" d="M812.7 586.32C784.1400000000001 731.22 656.88 840 504 840C382.62 840 277.2 771.12 224.7 670.32C98.28 656.88 0 549.78 0 420C0 280.98 112.98 168 252 168H798C913.92 168 1008 262.0800000000001 1008 378C1008 488.88 921.9 578.76 812.7 586.32zM588 462V294H420V462H294L489.3 657.3C497.7 665.7 510.72 665.7 519.12 657.3L714 462H588z"/>
    <glyph glyph-name="ballot" unicode="ballot" horiz-adv-x="1008" d="M588 609H714C737.1 609 756 627.9 756 651S737.1 693 714 693H588C564.9 693 546 674.0999999999999 546 651S564.9 609 588 609zM588 315H714C737.1 315 756 333.9 756 357S737.1 399 714 399H588C564.9 399 546 380.1 546 357S564.9 315 588 315zM798 126H210C163.8 126 126 163.8 126 210V798C126 844.2 163.8 882 210 882H798C844.2 882 882 844.2 882 798V210C882 163.8 844.2 126 798 126zM294 546H420C443.1 546 462 564.9 462 588V714C462 737.0999999999999 443.1 756 420 756H294C270.9000000000001 756 252 737.0999999999999 252 714V588C252 564.9 270.9000000000001 546 294 546zM294 714H420V588H294V714zM294 252H420C443.1 252 462 270.9 462 294V420C462 443.1 443.1 462 420 462H294C270.9000000000001 462 252 443.1 252 420V294C252 270.9 270.9000000000001 252 294 252zM294 420H420V294H294V420z"/>
    <glyph glyph-name="bar_chart" unicode="bar_chart" horiz-adv-x="1008" d="M268.8 621.6H277.2000000000001C309.54 621.6 336 595.14 336 562.8V268.8C336 236.4599999999999 309.54 210 277.2 210H268.8C236.46 210 210 236.4599999999999 210 268.8V562.8C210 595.1399999999999 236.46 621.5999999999999 268.8 621.5999999999999zM504 798C536.34 798 562.8000000000001 771.54 562.8000000000001 739.2V268.8C562.8000000000001 236.4599999999999 536.34 210 504 210C471.66 210 445.2 236.4599999999999 445.2 268.8V739.2C445.2 771.54 471.66 798 504 798zM739.2 462C771.5400000000001 462 798 435.54 798 403.2V268.8C798 236.4599999999999 771.5400000000001 210 739.2 210C706.8600000000001 210 680.4000000000001 236.4599999999999 680.4000000000001 268.8V403.2C680.4000000000001 435.5399999999999 706.8600000000001 461.9999999999999 739.2 461.9999999999999z"/>
    <glyph glyph-name="battery_20" unicode="battery_20" horiz-adv-x="1008" d="M294 294V139.8599999999999C294 109.2000000000001 319.2 84 349.86 84H657.72C688.8 84 714 109.2000000000001 714 139.8599999999999V294H294zM714 784.14C714 814.8 688.8 840 658.14 840H588V882C588 905.1 569.1 924 546 924H462C438.9 924 420 905.1 420 882V840H349.86C319.2 840 294 814.8 294 784.14V294H714V784.14z"/>
    <glyph glyph-name="battery_30" unicode="battery_30" horiz-adv-x="1008" d="M714 784.14C714 814.8 688.8 840 658.14 840H588V882C588 905.1 569.1 924 546 924H462C438.9 924 420 905.1 420 882V840H349.86C319.2 840 294 814.8 294 784.14V378H714V784.14zM294 378V139.8599999999999C294 109.2000000000001 319.2 84 349.86 84H657.72C688.8 84 714 109.2000000000001 714 139.8599999999999V378H294z"/>
    <glyph glyph-name="battery_50" unicode="battery_50" horiz-adv-x="1008" d="M714 784.14C714 814.8 688.8 840 658.14 840H588V882C588 905.1 569.1 924 546 924H462C438.9 924 420 905.1 420 882V840H349.86C319.2 840 294 814.8 294 784.14V462H714V784.14zM294 462V139.8599999999999C294 109.2000000000001 319.2 84 349.86 84H657.72C688.8 84 714 109.2000000000001 714 139.8599999999999V462H294z"/>
    <glyph glyph-name="battery_60" unicode="battery_60" horiz-adv-x="1008" d="M714 784.14C714 814.8 688.8 840 658.14 840H588V882C588 905.1 569.1 924 546 924H462C438.9 924 420 905.1 420 882V840H349.86C319.2 840 294 814.8 294 784.14V546H714V784.14zM294 546V139.8599999999999C294 109.2000000000001 319.2 84 349.86 84H657.72C688.8 84 714 109.2000000000001 714 139.8599999999999V546H294z"/>
    <glyph glyph-name="battery_80" unicode="battery_80" horiz-adv-x="1008" d="M714 784.14C714 814.8 688.8 840 658.14 840H588V882C588 905.1 569.1 924 546 924H462C438.9 924 420 905.1 420 882V840H349.86C319.2 840 294 814.8 294 784.14V630H714V784.14zM294 630V139.8599999999999C294 109.2000000000001 319.2 84 349.86 84H657.72C688.8 84 714 109.2000000000001 714 139.8599999999999V630H294z"/>
    <glyph glyph-name="battery_90" unicode="battery_90" horiz-adv-x="1008" d="M714 784.14C714 814.8 688.8 840 658.14 840H588V882C588 905.1 569.1 924 546 924H462C438.9 924 420 905.1 420 882V840H349.86C319.2 840 294 814.8 294 784.14V672H714V784.14zM294 672V139.8599999999999C294 109.2000000000001 319.2 84 349.86 84H657.72C688.8 84 714 109.2000000000001 714 139.8599999999999V672H294z"/>
    <glyph glyph-name="battery_alert" unicode="battery_alert" horiz-adv-x="1008" d="M658.14 840H588V882C588 905.1 569.1 924 546 924H462C438.9 924 420 905.1 420 882V840H349.86C319.2 840 294 814.8 294 784.14V140.28C294 109.2000000000001 319.2 84 350.28 84H657.72C688.8 84 714 109.2000000000001 714 139.8599999999999V784.14C714 814.8 688.8 840 658.14 840zM546 252H462V336H546V252zM546 462C546 438.9 527.1 420 504 420S462 438.9 462 462V588C462 611.1 480.9 630 504 630S546 611.1 546 588V462z"/>
    <glyph glyph-name="battery_charging_20" unicode="battery_charging_20" horiz-adv-x="1008" d="M501.48 241.9200000000001C491.4 223.0200000000001 462 230.16 462 252V294H294V139.8599999999999C294 109.2000000000001 319.2 84 349.86 84H657.72C688.8 84 714 109.2000000000001 714 139.8599999999999V294H529.1999999999999L501.48 241.9200000000001zM658.14 840H588V882C588 905.1 569.1 924 546 924H462C438.9 924 420 905.1 420 882V840H349.86C319.2 840 294 814.8 294 784.14V294H462V399H412.86C396.9 399 386.8200000000001 415.8000000000001 394.38 430.0800000000001L506.52 640.0799999999999C516.6 658.98 546 651.8399999999999 546 630V483H595.14C611.1 483 621.18 466.1999999999999 613.62 451.92L529.1999999999999 294H714V784.14C714 814.8 688.8 840 658.14 840z"/>
    <glyph glyph-name="battery_charging_30" unicode="battery_charging_30" horiz-adv-x="1008" d="M658.14 840H588V882C588 905.1 569.1 924 546 924H462C438.9 924 420 905.1 420 882V840H349.86C319.2 840 294 814.8 294 784.14V399H412.86C396.9 399 386.8200000000001 415.8000000000001 394.38 430.0800000000001L506.52 640.0799999999999C516.6 658.98 546 651.8399999999999 546 630V483H595.14C611.1 483 621.18 466.1999999999999 613.62 451.92L585.48 399H714V784.14C714 814.8 688.8 840 658.14 840zM501.48 241.9200000000001C491.4 223.0200000000001 462 230.16 462 252V399H294V139.8599999999999C294 109.2000000000001 319.2 84 349.86 84H657.72C688.8 84 714 109.2000000000001 714 139.8599999999999V399H585.06L501.48 241.92z"/>
    <glyph glyph-name="battery_charging_50" unicode="battery_charging_50" horiz-adv-x="1008" d="M501.48 241.9200000000001C491.4 223.0200000000001 462 230.16 462 252V399H412.86C396.9 399 386.8200000000001 415.8000000000001 394.38 430.0800000000001L400.2600000000001 441H294V139.8599999999999C294 109.2000000000001 319.2 84 349.86 84H657.72C688.8 84 714 109.2000000000001 714 139.8599999999999V441H607.74L501.4800000000001 241.92zM658.14 840H588V882C588 905.1 569.1 924 546 924H462C438.9 924 420 905.1 420 882V840H349.86C319.2 840 294 814.8 294 784.14V441H400.26L506.5199999999999 640.0799999999999C516.5999999999999 658.98 545.9999999999999 651.8399999999999 545.9999999999999 630V483H595.1399999999999C611.0999999999999 483 621.1799999999998 466.1999999999999 613.6199999999999 451.92L607.7399999999999 441H714V784.14C714 814.8 688.8 840 658.14 840z"/>
    <glyph glyph-name="battery_charging_60" unicode="battery_charging_60" horiz-adv-x="1008" d="M658.14 840H588V882C588 905.1 569.1 924 546 924H462C438.9 924 420 905.1 420 882V840H349.86C319.2 840 294 814.8 294 784.14V546H456.54L506.52 640.0799999999999C516.6 658.98 546 651.8399999999999 546 630V546H714V784.14C714 814.8 688.8 840 658.14 840zM546 483H595.14C611.1 483 621.18 466.1999999999999 613.62 451.92L501.48 241.92C491.4 223.02 462 230.1599999999999 462 251.9999999999999V398.9999999999999H412.86C396.9 398.9999999999999 386.8200000000001 415.7999999999999 394.38 430.0799999999998L456.54 546H294V139.8599999999999C294 109.2000000000001 319.2 84 349.86 84H657.72C688.8 84 714 109.2000000000001 714 139.8599999999999V546H546V483z"/>
    <glyph glyph-name="battery_charging_80" unicode="battery_charging_80" horiz-adv-x="1008" d="M658.14 840H588V882C588 905.1 569.1 924 546 924H462C438.9 924 420 905.1 420 882V840H349.86C319.2 840 294 814.8 294 784.14V630H501.06L506.52 640.0799999999999C516.6 658.98 546 651.8399999999999 546 630H714V784.14C714 814.8 688.8 840 658.14 840zM546 483H595.14C611.1 483 621.18 466.1999999999999 613.62 451.92L501.48 241.92C491.4 223.02 462 230.1599999999999 462 251.9999999999999V398.9999999999999H412.86C396.9 398.9999999999999 386.8200000000001 415.7999999999999 394.38 430.0799999999998L501.06 630H294V139.8599999999999C294 109.2000000000001 319.2 84 349.86 84H657.72C688.8 84 714 109.2000000000001 714 139.8599999999999V630H546V483z"/>
    <glyph glyph-name="battery_charging_90" unicode="battery_charging_90" horiz-adv-x="1008" d="M658.14 840H588V882C588 905.1 569.1 924 546 924H462C438.9 924 420 905.1 420 882V840H349.86C319.2 840 294 814.8 294 784.14V672H714V784.14C714 814.8 688.8 840 658.14 840zM294 139.8599999999999C294 109.2000000000001 319.2 84 349.86 84H657.72C688.8 84 714 109.2000000000001 714 139.8599999999999V672H294V139.8599999999999zM394.38 430.08L506.52 640.0799999999999C516.6 658.9799999999999 546 651.8399999999999 546 630V482.9999999999999H595.14C611.1 482.9999999999999 621.18 466.1999999999999 613.62 451.92L501.48 241.92C491.4 223.02 462 230.1599999999999 462 251.9999999999999V398.9999999999999H412.86C397.3200000000001 398.9999999999999 386.8200000000001 415.7999999999999 394.38 430.0799999999998z"/>
    <glyph glyph-name="battery_charging_full" unicode="battery_charging_full" horiz-adv-x="1008" d="M658.14 840H588V882C588 905.1 569.1 924 546 924H462C438.9 924 420 905.1 420 882V840H349.86C319.2 840 294 814.8 294 784.14V140.28C294 109.2000000000001 319.2 84 350.28 84H657.72C688.8 84 714 109.2000000000001 714 139.8599999999999V784.14C714 814.8 688.8 840 658.14 840zM613.62 451.92L501.48 241.92C491.4 223.02 462 230.1599999999999 462 251.9999999999999V398.9999999999999H412.86C396.9 398.9999999999999 386.8200000000001 415.7999999999999 394.38 430.0799999999998L506.52 640.0799999999999C516.6 658.9799999999998 546 651.8399999999998 546 629.9999999999998V482.9999999999999H595.14C610.68 482.9999999999999 621.18 466.1999999999998 613.62 451.9199999999998z"/>
    <glyph glyph-name="battery_full" unicode="battery_full" horiz-adv-x="1008" d="M658.14 840H588V882C588 905.1 569.1 924 546 924H462C438.9 924 420 905.1 420 882V840H349.86C319.2 840 294 814.8 294 784.14V140.28C294 109.2000000000001 319.2 84 350.28 84H657.72C688.8 84 714 109.2000000000001 714 139.8599999999999V784.14C714 814.8 688.8 840 658.14 840z"/>
    <glyph glyph-name="battery_std" unicode="battery_std" horiz-adv-x="1008" d="M658.14 840H588V882C588 905.1 569.1 924 546 924H462C438.9 924 420 905.1 420 882V840H349.86C319.2 840 294 814.8 294 784.14V140.28C294 109.2000000000001 319.2 84 350.28 84H657.72C688.8 84 714 109.2000000000001 714 139.8599999999999V784.14C714 814.8 688.8 840 658.14 840z"/>
    <glyph glyph-name="battery_unknown" unicode="battery_unknown" horiz-adv-x="1008" d="M658.14 840H588V882C588 905.1 569.1 924 546 924H462C438.9 924 420 905.1 420 882V840H349.86C319.2 840 294 814.8 294 784.14V140.28C294 109.2000000000001 319.2 84 350.28 84H657.72C688.8 84 714 109.2000000000001 714 139.8599999999999V784.14C714 814.8 688.8 840 658.14 840zM546 252H462V336H546V252zM600.6 475.02S584.64 457.38 572.46 445.2C566.58 439.32 561.12 432.1799999999999 556.08 425.4599999999999L552.3000000000001 419.1599999999999C548.94 414.1199999999999 546.42 408.6599999999999 544.32 403.6199999999999C540.5400000000001 394.3799999999999 537.6 385.56 537.6 377.9999999999999H470.4C470.4 395.6399999999999 475.44 411.5999999999999 482.58 425.4599999999999C485.1 430.08 488.04 434.28 490.98 438.48C492.24 440.5800000000001 493.5 443.0999999999999 495.1799999999999 445.2C499.8 451.08 504.84 456.9599999999999 509.46 462L548.52 501.48C559.8599999999999 512.8199999999999 566.9999999999999 528.78 566.9999999999999 546C566.9999999999999 580.86 538.8599999999999 609 503.9999999999999 609C476.6999999999999 609 453.1799999999999 591.78 444.7799999999999 567.4200000000001C440.16 554.4 428.3999999999999 546 414.96 546C393.12 546 378 567.8399999999999 385.14 588.4200000000001C402.78 637.14 448.98 672 504 672C573.72 672 630 615.72 630 546C630 518.28 618.66 493.08 600.6 475.02z"/>
    <glyph glyph-name="beach_access" unicode="beach_access" horiz-adv-x="1008" d="M551.46 396.48L611.52 456.54L852.18 215.88C868.56 199.5 868.56 172.62 852.18 155.8200000000001C835.8 139.4400000000001 808.92 139.4400000000001 792.12 155.8200000000001L551.4599999999999 396.48zM731.6400000000001 637.14L784.98 690.48C822.3600000000001 727.8599999999999 817.32 792.54 771.9600000000002 819.8399999999999C608.58 919.8 392.7000000000002 899.22 251.1600000000001 758.1C416.2200000000001 812.7 600.1800000000001 768.6 731.6400000000001 637.14zM249.9 756.8399999999999C108.78 615.3 88.2 399.42 187.7400000000001 236.0399999999999C215.46 190.68 279.7200000000001 185.2199999999998 317.1 223.02L370.44 276.3599999999999C239.4 407.8200000000001 195.3 591.78 249.9 756.8399999999999zM250.74 757.68L250.32 757.26C234.36 630.8399999999999 299.46 468.3 430.92 336.42L671.58 577.0799999999999C540.12 708.54 377.1600000000001 773.64 250.7400000000001 757.6800000000001z"/>
    <glyph glyph-name="beenhere" unicode="beenhere" horiz-adv-x="1008" d="M798 966H210C163.8 966 126.42 928.2 126.42 882L126 338.9400000000001C126 309.9599999999999 140.7 284.3400000000001 162.96 269.2200000000001L480.9 57.5400000000001C495.1799999999999 48.3000000000001 513.24 48.3000000000001 527.52 57.5400000000001L845.0399999999998 269.2200000000001C867.3 284.3400000000001 881.9999999999999 309.9599999999999 881.9999999999999 338.9400000000001V882C881.9999999999999 928.2 844.1999999999999 966 797.9999999999999 966zM768.6 684.5999999999999L449.8200000000001 365.8200000000001C433.44 349.4400000000001 406.9800000000001 349.4400000000001 390.6 365.8200000000001L239.82 516.6C223.44 532.98 223.44 559.44 239.82 575.82S282.6600000000001 592.2 299.04 575.82L420 454.86L708.9599999999999 743.8199999999999C725.34 760.2 751.8 760.2 768.18 743.8199999999999S784.9799999999999 700.98 768.6 684.5999999999999z"/>
    <glyph glyph-name="block" unicode="block" horiz-adv-x="1008" d="M504 924C272.1600000000001 924 84 735.8399999999999 84 504S272.1600000000001 84 504 84S924 272.16 924 504S735.84 924 504 924zM168 504C168 689.64 318.36 840 504 840C581.6999999999999 840 653.1 813.54 709.8 769.02L238.98 298.2000000000001C194.46 354.9 168 426.3000000000001 168 504zM504 168C426.3 168 354.9 194.4599999999999 298.2 238.98L769.02 709.8C813.5400000000001 653.1 840 581.7 840 504C840 318.3599999999999 689.6400000000001 168 504 168z"/>
    <glyph glyph-name="bluetooth" unicode="bluetooth" horiz-adv-x="1008" d="M714 714L533.82 894.1800000000001C507.36 920.64 462 902.16 462 864.78V605.22L298.62 768.6C282.24 784.98 255.78 784.98 239.4 768.6C223.02 752.22 223.02 725.76 239.4 709.38L444.78 504L239.4 298.62C223.02 282.24 223.02 255.78 239.4 239.4C255.78 223.02 282.24 223.02 298.62 239.4L462 402.78V143.22C462 105.84 507.36 86.9400000000001 533.82 113.4L714 294C730.38 310.38 730.38 336.8400000000001 714 353.2200000000001L563.22 504L714 654.36C730.38 670.74 730.38 697.62 714 714zM546 763.14L624.9599999999999 684.1800000000001L546 605.22V763.14zM624.9599999999999 323.8200000000001L546 244.8599999999999V402.78L624.9599999999999 323.82z"/>
    <glyph glyph-name="bluetooth_audio" unicode="bluetooth_audio" horiz-adv-x="1008" d="M671.16 576.24L613.2 518.28C604.8000000000001 509.88 604.8000000000001 496.86 613.2 488.4599999999999L671.16 430.5C682.9200000000001 418.74 702.66 424.2 706.8600000000001 440.16C711.48 461.16 714.0000000000001 482.16 714.0000000000001 504C714.0000000000001 525.4200000000001 711.4800000000002 546.4200000000001 706.4400000000002 566.1600000000001C702.6600000000002 582.1200000000001 682.9200000000002 588 671.1600000000002 576.24zM844.2 681.24C833.7 704.34 803.0400000000001 709.38 785.4000000000001 691.32C774.48 680.4000000000001 772.3800000000002 664.44 778.26 650.1600000000001C797.58 605.22 808.5 556.0799999999999 808.5 504.42C808.5 452.34 797.5799999999999 402.78 777.84 357.8400000000001C771.9599999999999 344.4 774.06 328.8599999999999 784.56 318.3599999999999C801.78 301.1399999999999 830.76 306.18 841.26 328.02C867.72 382.62 882.4200000000001 443.94 882.4200000000001 508.62C882 569.52 868.5600000000002 628.3199999999999 844.2 681.24zM478.38 504L629.16 654.36C645.5400000000001 670.74 645.5400000000001 697.2 629.16 714L448.9800000000001 894.1800000000001C422.5200000000001 920.64 377.1600000000001 901.74 377.1600000000001 864.36V604.8L213.78 768.6C197.4 784.98 170.94 784.98 154.56 768.6C138.18 752.22 138.18 725.76 154.56 709.38L359.94 504L154.56 298.62C138.18 282.24 138.18 255.78 154.56 239.4C170.94 223.02 197.4 223.02 213.78 239.4L377.1600000000001 402.78V143.22C377.1600000000001 105.84 422.5200000000001 86.9400000000001 448.9800000000001 113.4L629.58 294C645.9600000000002 310.38 645.9600000000002 336.8400000000001 629.58 353.64L478.38 504zM461.16 763.14L540.12 684.1800000000001L461.16 605.22V763.14zM461.16 244.8599999999999V402.78L540.12 323.82L461.16 244.8599999999999z"/>
    <glyph glyph-name="bluetooth_connected" unicode="bluetooth_connected" horiz-adv-x="1008" d="M252 462C275.1 485.1 275.1 522.48 252 545.5799999999999V546C228.9 569.1 191.1 569.1 168 546S144.9 485.1 168 462S228.9 438.9 252 462zM840 546C816.48 569.52 779.1 569.52 756 546.4200000000001V546C732.9 522.9 732.9 485.52 756 462.42V462C779.1 438.9 816.48 438.9 839.5799999999999 462H840C863.1 485.1 863.1 522.9 840 546zM714 714L533.82 894.1800000000001C507.36 920.64 462 902.16 462 864.78V605.22L298.62 768.6C282.24 784.98 255.78 784.98 239.4 768.6C223.02 752.22 223.02 725.76 239.4 709.38L444.78 504L239.4 298.62C223.02 282.24 223.02 255.78 239.4 239.4C255.78 223.02 282.24 223.02 298.62 239.4L462 402.78V143.22C462 105.84 507.36 86.9400000000001 533.82 113.4L714 294C730.38 310.38 730.38 336.8400000000001 714 353.64L563.22 504L714 654.36C730.38 670.74 730.38 697.62 714 714zM624.9599999999999 323.8200000000001L546 244.8599999999999V402.78L624.9599999999999 323.82zM546 605.22V763.14L624.9599999999999 684.1800000000001L546 605.22z"/>
    <glyph glyph-name="bluetooth_disabled" unicode="bluetooth_disabled" horiz-adv-x="1008" d="M810.18 256.62L256.62 810.6C240.2400000000001 826.98 213.78 826.98 197.4 810.6C181.02 794.22 181.02 767.76 197.4 751.38L444.78 504L239.4 298.62C223.02 282.24 223.02 255.78 239.4 239.4C255.78 223.02 282.24 223.02 298.62 239.4L462 402.78V143.22C462 105.84 507.36 86.9400000000001 533.82 113.4L684.6 264.18L751.38 197.4C767.76 181.02 794.22 181.02 810.6 197.4C826.56 213.78 826.56 240.66 810.18 256.62zM546 244.8599999999999V402.78L624.9599999999999 323.82L546 244.8599999999999zM546 763.1399999999999L624.9599999999999 684.18L563.2199999999999 622.4399999999999L622.4399999999999 563.2199999999999L714 654.36C730.38 670.74 730.38 697.2 714 714L533.82 894.1800000000001C507.36 920.64 462 902.16 462 864.78V723.6600000000001L546 639.6600000000001V763.14z"/>
    <glyph glyph-name="bluetooth_searching" unicode="bluetooth_searching" horiz-adv-x="1008" d="M671.16 576.24L613.2 518.28C604.8000000000001 509.88 604.8000000000001 496.86 613.2 488.4599999999999L671.16 430.5C682.9200000000001 418.74 702.66 424.2 706.8600000000001 440.16C711.48 461.16 714.0000000000001 482.16 714.0000000000001 504C714.0000000000001 525.4200000000001 711.4800000000002 546.4200000000001 706.4400000000002 566.1600000000001C702.6600000000002 582.1200000000001 682.9200000000002 588 671.1600000000002 576.24zM844.2 681.24C833.7 704.34 803.0400000000001 709.38 785.4000000000001 691.32C774.48 680.4000000000001 772.3800000000002 664.44 778.26 650.1600000000001C797.58 605.22 808.5 556.0799999999999 808.5 504.42C808.5 452.34 797.5799999999999 402.78 777.84 357.8400000000001C771.9599999999999 344.4 774.06 328.8599999999999 784.56 318.3599999999999C801.78 301.1399999999999 830.76 306.18 841.26 328.02C867.72 382.62 882.4200000000001 443.94 882.4200000000001 508.62C882 569.52 868.5600000000002 628.3199999999999 844.2 681.24zM479.22 504L630 654.36C646.38 670.74 646.38 697.2 630 714L449.8200000000001 894.1800000000001C423.36 920.64 378 902.16 378 864.78V605.22L214.62 768.6C198.2400000000001 784.98 171.78 784.98 155.4 768.6C139.02 752.22 139.02 725.76 155.4 709.38L360.78 504L155.4 298.62C139.02 282.24 139.02 255.78 155.4 239.4C171.78 223.02 198.2400000000001 223.02 214.62 239.4L378 402.78V143.22C378 105.84 423.36 86.9400000000001 449.8200000000001 113.4L630 294C646.38 310.38 646.38 336.8400000000001 630 353.64L479.22 504zM462 763.14L540.9599999999999 684.1800000000001L462 605.22V763.14zM462 244.8599999999999V402.78L540.9599999999999 323.82L462 244.8599999999999z"/>
    <glyph glyph-name="blur_circular" unicode="blur_circular" horiz-adv-x="1008" d="M420 630C396.9 630 378 611.1 378 588S396.9 546 420 546S462 564.9 462 588S443.1 630 420 630zM420 462C396.9 462 378 443.1 378 420S396.9 378 420 378S462 396.9 462 420S443.1 462 420 462zM294 609C282.24 609 273 599.76 273 588S282.24 567 294 567S315 576.24 315 588S305.76 609 294 609zM420 315C408.24 315 399 305.76 399 294S408.24 273 420 273S441 282.24 441 294S431.76 315 420 315zM294 441C282.24 441 273 431.76 273 420S282.24 399 294 399S315 408.24 315 420S305.76 441 294 441zM420 693C431.76 693 441 702.24 441 714S431.76 735 420 735S399 725.76 399 714S408.24 693 420 693zM588 630C564.9 630 546 611.1 546 588S564.9 546 588 546S630 564.9 630 588S611.1 630 588 630zM588 693C599.76 693 609 702.24 609 714S599.76 735 588 735S567 725.76 567 714S576.24 693 588 693zM714 441C702.24 441 693 431.76 693 420S702.24 399 714 399S735 408.24 735 420S725.76 441 714 441zM714 609C702.24 609 693 599.76 693 588S702.24 567 714 567S735 576.24 735 588S725.76 609 714 609zM504 924C272.1600000000001 924 84 735.8399999999999 84 504S272.1600000000001 84 504 84S924 272.16 924 504S735.84 924 504 924zM504 168C318.36 168 168 318.3599999999999 168 504S318.36 840 504 840S840 689.64 840 504S689.6400000000001 168 504 168zM588 315C576.24 315 567 305.76 567 294S576.24 273 588 273S609 282.24 609 294S599.76 315 588 315zM588 462C564.9 462 546 443.1 546 420S564.9 378 588 378S630 396.9 630 420S611.1 462 588 462z"/>
    <glyph glyph-name="blur_linear" unicode="blur_linear" horiz-adv-x="1008" d="M210 273C244.86 273 273 301.1400000000001 273 336S244.86 399 210 399S147 370.86 147 336S175.14 273 210 273zM378 462C401.1 462 420 480.9 420 504S401.1 546 378 546S336 527.1 336 504S354.9 462 378 462zM378 630C401.1 630 420 648.9 420 672S401.1 714 378 714S336 695.0999999999999 336 672S354.9 630 378 630zM168 126H840C863.1 126 882 144.9 882 168S863.1 210 840 210H168C144.9 210 126 191.1 126 168S144.9 126 168 126zM210 609C244.86 609 273 637.14 273 672S244.86 735 210 735S147 706.86 147 672S175.14 609 210 609zM210 441C244.86 441 273 469.14 273 504S244.86 567 210 567S147 538.86 147 504S175.14 441 210 441zM378 294C401.1 294 420 312.9 420 336S401.1 378 378 378S336 359.1 336 336S354.9 294 378 294zM714 315C725.76 315 735 324.24 735 336S725.76 357 714 357S693 347.76 693 336S702.24 315 714 315zM126 840C126 816.9 144.9 798 168 798H840C863.1 798 882 816.9 882 840S863.1 882 840 882H168C144.9 882 126 863.1 126 840zM714 651C725.76 651 735 660.24 735 672S725.76 693 714 693S693 683.76 693 672S702.24 651 714 651zM714 483C725.76 483 735 492.24 735 504S725.76 525 714 525S693 515.76 693 504S702.24 483 714 483zM546 630C569.1 630 588 648.9 588 672S569.1 714 546 714S504 695.0999999999999 504 672S522.9 630 546 630zM546 462C569.1 462 588 480.9 588 504S569.1 546 546 546S504 527.1 504 504S522.9 462 546 462zM546 294C569.1 294 588 312.9 588 336S569.1 378 546 378S504 359.1 504 336S522.9 294 546 294z"/>
    <glyph glyph-name="blur_off" unicode="blur_off" horiz-adv-x="1008" d="M546 756A42 42 0 0 1 630 756A42 42 0 0 1 546 756M579.6 525.8399999999999L588 525C622.86 525 651 553.14 651 588S622.86 651 588 651S525 622.86 525 588L525.84 579.6C529.62 551.46 551.4599999999999 529.6200000000001 579.5999999999999 525.84zM588 861C599.76 861 609 870.24 609 882S599.76 903 588 903S567 893.76 567 882S576.24 861 588 861zM420 861C431.76 861 441 870.24 441 882S431.76 903 420 903S399 893.76 399 882S408.24 861 420 861zM714 588A42 42 0 0 1 798 588A42 42 0 0 1 714 588M714 756A42 42 0 0 1 798 756A42 42 0 0 1 714 756M882 567C893.76 567 903 576.24 903 588S893.76 609 882 609S861 599.76 861 588S870.24 567 882 567zM378 756A42 42 0 0 1 462 756A42 42 0 0 1 378 756M714 420A42 42 0 0 1 798 420A42 42 0 0 1 714 420M210 252A42 42 0 0 1 294 252A42 42 0 0 1 210 252M588 147C576.24 147 567 137.76 567 126S576.24 105 588 105S609 114.24 609 126S599.76 147 588 147zM882 441C870.24 441 861 431.76 861 420S870.24 399 882 399S903 408.24 903 420S893.76 441 882 441zM126 441C114.24 441 105 431.76 105 420S114.24 399 126 399S147 408.24 147 420S137.76 441 126 441zM378 252A42 42 0 0 1 462 252A42 42 0 0 1 378 252M126 609C114.24 609 105 599.76 105 588S114.24 567 126 567S147 576.24 147 588S137.76 609 126 609zM420 147C408.24 147 399 137.76 399 126S408.24 105 420 105S441 114.24 441 126S431.76 147 420 147zM210 420A42 42 0 0 1 294 420A42 42 0 0 1 210 420M134.82 816.48C118.44 800.1 118.44 773.64 134.82 757.26L263.76 628.32L252 630C228.9 630 210 611.1 210 588S228.9 546 252 546S294 564.9 294 588C294 592.2 292.74 595.98 291.48 599.76L409.5 481.74C379.68 477.12 357 451.0799999999999 357 419.9999999999999C357 385.1399999999999 385.14 356.9999999999999 420 356.9999999999999C451.08 356.9999999999999 477.12 379.68 481.74 409.4999999999999L599.76 291.4799999999999C595.98 292.74 592.2 293.9999999999999 588.0000000000001 293.9999999999999C564.9000000000001 293.9999999999999 546.0000000000001 275.0999999999999 546.0000000000001 251.9999999999999S564.9000000000001 209.9999999999999 588.0000000000001 209.9999999999999S630.0000000000001 228.8999999999999 630.0000000000001 251.9999999999999C630.0000000000001 256.2 628.7400000000001 259.9799999999999 627.48 263.7599999999999L756.8400000000001 134.8199999999999C773.2200000000001 118.4399999999998 799.6800000000001 118.4399999999998 816.0600000000002 134.8199999999999C832.4400000000002 151.1999999999999 832.4400000000002 177.6599999999999 816.0600000000002 194.4599999999998L194.04 816.48C177.66 832.86 151.2 832.86 134.82 816.48z"/>
    <glyph glyph-name="blur_on" unicode="blur_on" horiz-adv-x="1008" d="M252 462C228.9 462 210 443.1 210 420S228.9 378 252 378S294 396.9 294 420S275.1 462 252 462zM252 294C228.9 294 210 275.1 210 252S228.9 210 252 210S294 228.9 294 252S275.1 294 252 294zM252 630C228.9 630 210 611.1 210 588S228.9 546 252 546S294 564.9 294 588S275.1 630 252 630zM126 609C114.24 609 105 599.76 105 588S114.24 567 126 567S147 576.24 147 588S137.76 609 126 609zM252 798C228.9 798 210 779.1 210 756S228.9 714 252 714S294 732.9000000000001 294 756S275.1 798 252 798zM882 567C893.76 567 903 576.24 903 588S893.76 609 882 609S861 599.76 861 588S870.24 567 882 567zM588 714C611.1 714 630 732.9000000000001 630 756S611.1 798 588 798S546 779.1 546 756S564.9 714 588 714zM588 861C599.76 861 609 870.24 609 882S599.76 903 588 903S567 893.76 567 882S576.24 861 588 861zM126 441C114.24 441 105 431.76 105 420S114.24 399 126 399S147 408.24 147 420S137.76 441 126 441zM420 147C408.24 147 399 137.76 399 126S408.24 105 420 105S441 114.24 441 126S431.76 147 420 147zM420 861C431.76 861 441 870.24 441 882S431.76 903 420 903S399 893.76 399 882S408.24 861 420 861zM420 714C443.1 714 462 732.9000000000001 462 756S443.1 798 420 798S378 779.1 378 756S396.9 714 420 714zM420 483C385.14 483 357 454.86 357 420S385.14 357 420 357S483 385.14 483 420S454.86 483 420 483zM756 462C732.9 462 714 443.1 714 420S732.9 378 756 378S798 396.9 798 420S779.1 462 756 462zM756 294C732.9 294 714 275.1 714 252S732.9 210 756 210S798 228.9 798 252S779.1 294 756 294zM756 630C732.9 630 714 611.1 714 588S732.9 546 756 546S798 564.9 798 588S779.1 630 756 630zM756 798C732.9 798 714 779.1 714 756S732.9 714 756 714S798 732.9000000000001 798 756S779.1 798 756 798zM882 441C870.24 441 861 431.76 861 420S870.24 399 882 399S903 408.24 903 420S893.76 441 882 441zM588 294C564.9 294 546 275.1 546 252S564.9 210 588 210S630 228.9 630 252S611.1 294 588 294zM588 147C576.24 147 567 137.76 567 126S576.24 105 588 105S609 114.24 609 126S599.76 147 588 147zM420 651C385.14 651 357 622.86 357 588S385.14 525 420 525S483 553.14 483 588S454.86 651 420 651zM420 294C396.9 294 378 275.1 378 252S396.9 210 420 210S462 228.9 462 252S443.1 294 420 294zM588 483C553.14 483 525 454.86 525 420S553.14 357 588 357S651 385.14 651 420S622.86 483 588 483zM588 651C553.14 651 525 622.86 525 588S553.14 525 588 525S651 553.14 651 588S622.86 651 588 651z"/>
    <glyph glyph-name="book" unicode="book" horiz-adv-x="1008" d="M756 924H252C205.8 924 168 886.2 168 840V168C168 121.8 205.8 84 252 84H756C802.2 84 840 121.8 840 168V840C840 886.2 802.2 924 756 924zM252 840H462V504L357 567L252 504V840z"/>
    <glyph glyph-name="bookmark" unicode="bookmark" horiz-adv-x="1008" d="M714 882H294C247.8 882 210 844.2 210 798V126L504 252L798 126V798C798 844.2 760.2 882 714 882z"/>
    <glyph glyph-name="bookmark_border" unicode="bookmark_border" horiz-adv-x="1008" d="M714 882H294C247.8 882 210 844.2 210 798V126L504 252L798 126V798C798 844.2 760.2 882 714 882zM714 252L504 343.56L294 252V756C294 779.1 312.9000000000001 798 336 798H672C695.1 798 714 779.1 714 756V252z"/>
    <glyph glyph-name="bookmarks" unicode="bookmarks" horiz-adv-x="1008" d="M798 252L882 210V882C882 928.2 844.2 966 798 966H377.58C331.38 966 294 928.2 294 882H714C760.2 882 798 844.2 798 798V252zM630 798H210C163.8 798 126 760.2 126 714V42L420 168L714 42V714C714 760.2 676.2 798 630 798z"/>
    </font>
</defs>
</svg>
